<?xml version="1.0" encoding="utf-8"?>
<svg width="512px" height="512px" viewbox="0 0 512 512" version="1.1" xmlns:xlink="http://www.w3.org/1999/xlink" xmlns="http://www.w3.org/2000/svg">
  <defs>
    <path d="M0 0L512 0L512 512L0 512L0 0Z" id="path_1" />
    <path d="M77.0051 0L266.136 0C266.555 0 266.973 0.0102734 267.392 0.0308333C267.811 0.0513932 268.228 0.0822005 268.645 0.123268C269.061 0.164323 269.477 0.215586 269.892 0.277057C270.306 0.338529 270.719 0.41013 271.13 0.491862C271.54 0.573594 271.949 0.665352 272.355 0.767148C272.762 0.868945 273.166 0.980638 273.567 1.10225C273.967 1.22387 274.365 1.35523 274.76 1.49637C275.155 1.6375 275.545 1.78823 275.932 1.94855C276.319 2.10888 276.702 2.27859 277.081 2.45771C277.46 2.63682 277.833 2.82513 278.202 3.0226C278.572 3.22009 278.936 3.42652 279.296 3.6419C279.656 3.85728 280.009 4.08134 280.358 4.31409C280.706 4.54684 281.048 4.788 281.385 5.03755C281.722 5.28711 282.052 5.54478 282.375 5.81055C282.699 6.07632 283.017 6.34987 283.327 6.6312C283.637 6.91254 283.94 7.20133 284.237 7.49758C284.533 7.79379 284.821 8.09711 285.102 8.40754C285.384 8.71794 285.658 9.03507 285.923 9.35889C286.189 9.68275 286.447 10.0129 286.696 10.3494C286.946 10.6859 287.188 11.0283 287.42 11.3766C287.653 11.725 287.877 12.0788 288.092 12.4381C288.307 12.7975 288.514 13.1619 288.712 13.5313C288.909 13.9008 289.097 14.2749 289.277 14.6536C289.455 15.0323 289.625 15.4152 289.785 15.8023C289.946 16.1893 290.096 16.58 290.237 16.9745C290.379 17.369 290.51 17.7666 290.632 18.1675C290.753 18.5684 290.865 18.972 290.966 19.3783C291.069 19.7848 291.161 20.1934 291.243 20.6042C291.325 21.0152 291.396 21.4279 291.458 21.8423C291.519 22.2566 291.57 22.6723 291.611 23.0892C291.652 23.5061 291.683 23.9238 291.703 24.3422C291.724 24.7607 291.734 25.1794 291.734 25.5983L291.734 209.164C291.734 209.547 291.725 209.931 291.705 210.314C291.687 210.698 291.659 211.081 291.622 211.463C291.584 211.844 291.537 212.225 291.48 212.605C291.424 212.985 291.359 213.363 291.284 213.74C291.209 214.115 291.124 214.489 291.031 214.863C290.938 215.235 290.835 215.604 290.724 215.972C290.612 216.339 290.492 216.703 290.364 217.064C290.234 217.426 290.096 217.784 289.949 218.138C289.802 218.493 289.647 218.844 289.483 219.191C289.318 219.538 289.145 219.881 288.964 220.22C288.783 220.558 288.595 220.891 288.398 221.22C288.2 221.55 287.994 221.874 287.782 222.193C287.569 222.512 287.348 222.826 287.119 223.135C286.891 223.443 286.655 223.745 286.411 224.041C286.168 224.338 285.917 224.629 285.658 224.913C285.401 225.198 285.137 225.476 284.865 225.748C284.593 226.018 284.315 226.283 284.032 226.541C283.748 226.798 283.457 227.049 283.16 227.292C282.863 227.536 282.56 227.772 282.252 228C281.944 228.229 281.63 228.45 281.312 228.664C280.992 228.877 280.668 229.082 280.339 229.279C280.009 229.477 279.675 229.666 279.337 229.847C278.998 230.028 278.655 230.2 278.308 230.364C277.962 230.528 277.612 230.683 277.257 230.83C276.902 230.978 276.544 231.116 276.183 231.245C275.821 231.375 275.457 231.495 275.089 231.607C274.722 231.718 274.352 231.821 273.98 231.914C273.608 232.007 273.233 232.091 272.857 232.165C272.48 232.24 272.102 232.306 271.722 232.363C271.343 232.418 270.962 232.465 270.58 232.503C270.198 232.54 269.815 232.569 269.431 232.588C269.048 232.606 268.665 232.616 268.281 232.617L268.278 232.617C267.894 232.617 267.511 232.626 267.127 232.644C266.744 232.664 266.361 232.692 265.979 232.73C265.597 232.767 265.216 232.814 264.837 232.87C264.457 232.926 264.079 232.992 263.702 233.068C263.326 233.142 262.951 233.225 262.579 233.318C262.207 233.412 261.837 233.514 261.47 233.626C261.102 233.737 260.738 233.858 260.378 233.987C260.016 234.116 259.657 234.254 259.302 234.402C258.949 234.549 258.598 234.704 258.251 234.868C257.904 235.032 257.561 235.204 257.222 235.385C256.884 235.566 256.55 235.756 256.22 235.954C255.891 236.15 255.568 236.355 255.249 236.568C254.929 236.782 254.615 237.003 254.307 237.232C253.999 237.46 253.696 237.697 253.399 237.94C253.103 238.184 252.813 238.434 252.529 238.691C252.244 238.949 251.966 239.214 251.694 239.485C251.423 239.757 251.159 240.035 250.9 240.319C250.643 240.604 250.393 240.894 250.15 241.191C249.906 241.487 249.67 241.789 249.441 242.098C249.213 242.406 248.991 242.72 248.777 243.04C248.565 243.358 248.359 243.682 248.161 244.012C247.964 244.341 247.776 244.675 247.595 245.012C247.414 245.352 247.241 245.695 247.078 246.042C246.913 246.389 246.757 246.74 246.61 247.095C246.463 247.449 246.325 247.806 246.197 248.168C246.067 248.529 245.947 248.893 245.835 249.26C245.724 249.628 245.621 249.998 245.528 250.37C245.435 250.743 245.35 251.117 245.275 251.493C245.201 251.869 245.136 252.248 245.079 252.628C245.023 253.008 244.976 253.388 244.937 253.769C244.9 254.152 244.872 254.535 244.854 254.918C244.834 255.301 244.825 255.685 244.825 256.068L244.825 256.072C244.825 256.456 244.816 256.84 244.797 257.224C244.778 257.607 244.75 257.989 244.712 258.371C244.675 258.753 244.628 259.134 244.572 259.514C244.515 259.893 244.449 260.271 244.374 260.647C244.299 261.024 244.215 261.398 244.122 261.77C244.028 262.143 243.926 262.513 243.816 262.88C243.705 263.247 243.584 263.612 243.454 263.974C243.325 264.334 243.186 264.692 243.04 265.047C242.893 265.402 242.737 265.753 242.574 266.1C242.41 266.447 242.237 266.79 242.057 267.128C241.876 267.467 241.686 267.8 241.488 268.129C241.291 268.458 241.086 268.782 240.872 269.102C240.659 269.421 240.439 269.734 240.21 270.042C239.981 270.351 239.745 270.653 239.502 270.95C239.258 271.247 239.008 271.538 238.751 271.823C238.492 272.107 238.227 272.385 237.955 272.655C237.685 272.927 237.407 273.192 237.123 273.449C236.838 273.707 236.547 273.958 236.25 274.202C235.953 274.445 235.651 274.681 235.343 274.91C235.035 275.139 234.722 275.359 234.402 275.572C234.084 275.786 233.759 275.991 233.429 276.188C233.1 276.386 232.767 276.576 232.428 276.757C232.09 276.937 231.747 277.11 231.4 277.274C231.053 277.437 230.702 277.593 230.347 277.74C229.993 277.886 229.635 278.025 229.274 278.154C228.912 278.283 228.548 278.403 228.181 278.514C227.814 278.626 227.443 278.728 227.07 278.822C226.698 278.915 226.324 278.999 225.947 279.074C225.572 279.149 225.194 279.215 224.814 279.27C224.434 279.327 224.053 279.375 223.671 279.412C223.289 279.45 222.907 279.478 222.524 279.497C222.14 279.516 221.756 279.525 221.372 279.525L25.5983 279.525C25.1794 279.525 24.7607 279.514 24.3422 279.494C23.9238 279.474 23.5061 279.443 23.0892 279.402C22.6723 279.361 22.2566 279.31 21.8423 279.248C21.4279 279.187 21.0152 279.115 20.6042 279.033C20.1934 278.951 19.7848 278.86 19.3783 278.758C18.972 278.656 18.5684 278.544 18.1675 278.422C17.7666 278.3 17.369 278.169 16.9745 278.028C16.58 277.887 16.1893 277.736 15.8023 277.576C15.4152 277.415 15.0323 277.246 14.6536 277.067C14.2749 276.888 13.9008 276.7 13.5313 276.502C13.1619 276.304 12.7975 276.098 12.4381 275.883C12.0788 275.668 11.725 275.444 11.3766 275.21C11.0283 274.978 10.6859 274.737 10.3494 274.487C10.0129 274.237 9.68275 273.98 9.35889 273.715C9.03507 273.449 8.71794 273.175 8.40754 272.894C8.09711 272.612 7.79379 272.323 7.49755 272.027C7.20133 271.732 6.91254 271.428 6.6312 271.118C6.34987 270.807 6.07631 270.49 5.81055 270.165C5.54478 269.842 5.28711 269.512 5.03755 269.176C4.788 268.839 4.54684 268.496 4.31409 268.148C4.08134 267.8 3.85728 267.446 3.6419 267.087C3.42652 266.727 3.22009 266.363 3.0226 265.994C2.82513 265.625 2.63682 265.25 2.45771 264.871C2.27859 264.492 2.10888 264.11 1.94855 263.723C1.78823 263.336 1.6375 262.945 1.49637 262.55C1.35523 262.155 1.22387 261.758 1.10225 261.357C0.980638 260.957 0.868945 260.553 0.767148 260.147C0.665352 259.74 0.573594 259.331 0.491862 258.92C0.41013 258.509 0.338529 258.097 0.277057 257.683C0.215586 257.269 0.164323 256.853 0.123268 256.435C0.0822005 256.019 0.0513932 255.601 0.0308333 255.183C0.0102734 254.764 0 254.345 0 253.926L0 77.6477C0 77.2288 0.0102734 76.8101 0.0308333 76.3918C0.0513932 75.9733 0.0822005 75.5556 0.123268 75.1387C0.164323 74.7217 0.215586 74.3061 0.277057 73.8917C0.338529 73.4773 0.41013 73.0647 0.491862 72.6538C0.573594 72.2429 0.665352 71.8342 0.767148 71.4279C0.868945 71.0215 0.980638 70.6178 1.10225 70.2169C1.22387 69.8161 1.35523 69.4184 1.49637 69.0239C1.6375 68.6295 1.78823 68.2387 1.94855 67.8518C2.10888 67.4647 2.27859 67.0818 2.45771 66.703C2.63682 66.3244 2.82513 65.9503 3.0226 65.5809C3.22009 65.2113 3.42652 64.8469 3.6419 64.4876C3.85728 64.1283 4.08134 63.7744 4.31409 63.426C4.54684 63.0778 4.788 62.7354 5.03755 62.3988C5.28711 62.0624 5.54478 61.7323 5.81055 61.4084C6.07631 61.0845 6.34987 60.7674 6.6312 60.457C6.91254 60.1466 7.20133 59.8433 7.49758 59.547C7.79379 59.2508 8.09711 58.962 8.40754 58.6807C8.71794 58.3993 9.03507 58.1257 9.35889 57.8599C9.68275 57.5943 10.0129 57.3366 10.3494 57.087C10.6859 56.8375 11.0283 56.5963 11.3766 56.3635C11.725 56.1309 12.0788 55.9068 12.4381 55.6914C12.7975 55.4761 13.1619 55.2696 13.5313 55.0721C13.9008 54.8746 14.2749 54.6863 14.6536 54.5072C15.0323 54.3281 15.4152 54.1584 15.8023 53.9981C16.1893 53.8378 16.58 53.687 16.9745 53.5458C17.369 53.4047 17.7666 53.2734 18.1675 53.1518C18.5684 53.0301 18.972 52.9184 19.3783 52.8166C19.7848 52.7149 20.1934 52.6231 20.6042 52.5413C21.0152 52.4596 21.4279 52.388 21.8423 52.3266C22.2566 52.265 22.6723 52.2138 23.0892 52.1728C23.5061 52.1317 23.9238 52.1009 24.3422 52.0803C24.7607 52.0597 25.1794 52.0494 25.5983 52.0494L25.8086 52.0494C26.2275 52.0494 26.6462 52.0392 27.0647 52.0187C27.483 51.9981 27.9007 51.9673 28.3177 51.9262C28.7346 51.8851 29.1502 51.8339 29.5646 51.7724C29.979 51.711 30.3916 51.6394 30.8026 51.5576C31.2134 51.4759 31.6221 51.3841 32.0285 51.2823C32.4348 51.1806 32.8384 51.0689 33.2394 50.9472C33.6402 50.8256 34.0379 50.6943 34.4323 50.5532C34.8268 50.412 35.2176 50.2612 35.6046 50.1009C35.9917 49.9406 36.3746 49.7709 36.7532 49.5918C37.132 49.4126 37.5061 49.2243 37.8755 49.0269C38.245 48.8294 38.6094 48.6229 38.9687 48.4076C39.3281 48.1922 39.6819 47.9681 40.0302 47.7353C40.3786 47.5026 40.721 47.2615 41.0574 47.0118C41.394 46.7623 41.7242 46.5047 42.048 46.2389C42.3718 45.9731 42.6889 45.6996 42.9993 45.4183C43.3097 45.137 43.613 44.8481 43.9093 44.5519C44.2056 44.2557 44.4943 43.9524 44.7756 43.6419C45.057 43.3315 45.3305 43.0144 45.5963 42.6906C45.8621 42.3668 46.1198 42.0366 46.3693 41.7C46.6189 41.3636 46.8601 41.0212 47.0927 40.6728C47.3255 40.3245 47.5496 39.9707 47.765 39.6114C47.9804 39.252 48.1868 38.8875 48.3842 38.5181C48.5817 38.1487 48.77 37.7746 48.9491 37.3958C49.1283 37.0172 49.298 36.6343 49.4583 36.2472C49.6187 35.8601 49.7694 35.4694 49.9104 35.0749C50.0516 34.6806 50.183 34.2829 50.3047 33.8819C50.4262 33.4811 50.5379 33.0775 50.6397 32.6711C50.7415 32.2647 50.8333 31.856 50.915 31.4452C50.9967 31.0343 51.0683 30.6216 51.1299 30.2072C51.1913 29.7928 51.2426 29.3771 51.2836 28.9603C51.3247 28.5434 51.3555 28.1257 51.376 27.7072C51.3965 27.2888 51.4069 26.8701 51.4069 26.4511L51.4069 25.5983C51.4069 25.1794 51.4171 24.7607 51.4377 24.3422C51.4583 23.9238 51.4891 23.5061 51.5301 23.0892C51.5711 22.6723 51.6225 22.2566 51.684 21.8423C51.7455 21.4279 51.817 21.0152 51.8987 20.6042C51.9804 20.1934 52.0722 19.7848 52.174 19.3783C52.2758 18.972 52.3876 18.5684 52.5092 18.1675C52.6308 17.7666 52.7622 17.369 52.9033 16.9745C53.0443 16.58 53.195 16.1893 53.3554 15.8023C53.5158 15.4152 53.6855 15.0323 53.8646 14.6536C54.0437 14.2749 54.232 13.9008 54.4295 13.5313C54.6269 13.1619 54.8333 12.7975 55.0487 12.4381C55.2641 12.0788 55.4882 11.725 55.721 11.3766C55.9538 11.0283 56.1949 10.6859 56.4444 10.3494C56.6939 10.0129 56.9516 9.68275 57.2174 9.35889C57.4832 9.03507 57.7567 8.71794 58.0381 8.40754C58.3195 8.09711 58.6082 7.79379 58.9044 7.49758C59.2007 7.20133 59.504 6.91254 59.8144 6.6312C60.1248 6.34987 60.4419 6.07632 60.7657 5.81055C61.0896 5.54478 61.4198 5.28711 61.7563 5.03755C62.0928 4.788 62.4352 4.54684 62.7835 4.31409C63.1319 4.08134 63.4857 3.85728 63.845 3.6419C64.2043 3.42652 64.5687 3.22009 64.9382 3.0226C65.3077 2.82513 65.6818 2.63682 66.0605 2.45771C66.4392 2.27859 66.8221 2.10888 67.209 1.94855C67.5961 1.78823 67.9869 1.6375 68.3814 1.49637C68.7758 1.35523 69.1735 1.22387 69.5743 1.10225C69.9753 0.980638 70.379 0.868945 70.7854 0.767148C71.1917 0.665352 71.6003 0.573594 72.0113 0.491862C72.4221 0.41013 72.8347 0.338529 73.2491 0.277057C73.6635 0.215586 74.0792 0.164323 74.4962 0.123268C74.9131 0.0822005 75.3307 0.0513932 75.7492 0.0308333C76.1676 0.0102734 76.5862 0 77.0051 0L77.0051 0Z" id="path_2" />
    <path d="M196.876 8.76688L197.43 9.26581C197.845 9.63955 198.251 10.0233 198.647 10.417C199.043 10.8106 199.43 11.2138 199.806 11.6265C200.183 12.0391 200.549 12.4608 200.904 12.8914C201.26 13.3221 201.605 13.7612 201.939 14.2088C202.274 14.6563 202.597 15.1118 202.908 15.5752C203.22 16.0387 203.521 16.5095 203.809 16.9877C204.098 17.4658 204.375 17.9508 204.64 18.4425C204.905 18.9343 205.158 19.4323 205.398 19.9365C205.639 20.4407 205.866 20.9504 206.082 21.4657C206.297 21.9812 206.5 22.5015 206.69 23.0268C206.88 23.5521 207.057 24.0818 207.221 24.6158C207.384 25.1498 207.535 25.6875 207.673 26.2289C207.81 26.7703 207.934 27.3148 208.045 27.8623C208.156 28.4098 208.253 28.9597 208.337 29.5119C208.421 30.0642 208.491 30.6182 208.547 31.1739C208.604 31.7296 208.647 32.2863 208.676 32.8442C208.705 33.402 208.721 33.9602 208.723 34.5189C208.725 35.0775 208.713 35.6357 208.687 36.1937C208.662 36.7517 208.622 37.3088 208.569 37.8648C208.516 38.4209 208.45 38.9754 208.37 39.5281C208.29 40.081 208.196 40.6315 208.089 41.1797C207.982 41.7279 207.861 42.2732 207.727 42.8155C207.593 43.3577 207.446 43.8963 207.285 44.4314C207.125 44.9666 206.952 45.4974 206.765 46.0238C206.579 46.5504 206.379 47.0721 206.167 47.5889C205.955 48.1056 205.731 48.6169 205.494 49.1226C205.256 49.6283 205.007 50.1279 204.745 50.6215C204.483 51.115 204.21 51.6017 203.924 52.0818C203.639 52.5618 203.341 53.0346 203.033 53.5C202.724 53.9655 202.404 54.4231 202.072 54.873C201.741 55.3227 201.399 55.764 201.046 56.1969C200.693 56.6299 200.33 57.054 199.956 57.4691L51.2836 222.587L0 176.411L148.672 11.2931C149.046 10.878 149.43 10.4723 149.824 10.076C150.217 9.6797 150.621 9.29335 151.033 8.91694C151.446 8.54046 151.868 8.17428 152.298 7.81845C152.729 7.4627 153.168 7.11772 153.615 6.78353C154.063 6.44932 154.518 6.1263 154.982 5.81448C155.445 5.50257 155.916 5.20225 156.394 4.91352C156.873 4.62479 157.358 4.34793 157.849 4.08297C158.341 3.81807 158.839 3.56538 159.343 3.32488C159.847 3.08438 160.357 2.85641 160.873 2.64098C161.388 2.42553 161.908 2.22286 162.434 2.03293C162.959 1.8431 163.488 1.66621 164.023 1.50229C164.556 1.3384 165.094 1.1877 165.636 1.05018C166.177 0.912695 166.721 0.788555 167.269 0.6778C167.816 0.567031 168.366 0.469766 168.919 0.38599C169.471 0.302214 170.025 0.232044 170.581 0.175469C171.136 0.118906 171.693 0.0760026 172.251 0.0467708C172.809 0.0175521 173.367 0.00200521 173.926 0.000182292C174.484 -0.00164063 175.042 0.0102214 175.6 0.0358073C176.158 0.0613802 176.715 0.100651 177.272 0.153594C177.828 0.20651 178.382 0.27306 178.935 0.353216C179.488 0.433372 180.038 0.527031 180.586 0.634219C181.135 0.741419 181.68 0.861966 182.222 0.99586C182.764 1.12983 183.303 1.27701 183.838 1.43741C184.373 1.5978 184.904 1.77124 185.431 1.95771C185.957 2.14419 186.479 2.34345 186.996 2.55548C187.512 2.76759 188.024 2.99224 188.529 3.22941C189.035 3.46658 189.535 3.716 190.028 3.97767C190.522 4.23943 191.008 4.5131 191.488 4.79869C191.969 5.08428 192.441 5.38147 192.907 5.69026C193.372 5.99913 193.83 6.31921 194.28 6.6505C194.729 6.98171 195.171 7.32382 195.604 7.67681C196.037 8.02978 196.461 8.39314 196.876 8.76688L196.876 8.76688L196.876 8.76688Z" id="path_3" />
    <rect width="512" height="512" id="artboard_1" />
    <clipPath id="clip_1">
      <use xlink:href="#artboard_1" clip-rule="evenodd" />
    </clipPath>
    <clipPath id="mask_1">
      <use xlink:href="#path_1" />
    </clipPath>
    <clipPath id="mask_2">
      <use xlink:href="#path_2" />
    </clipPath>
    <clipPath id="mask_3">
      <use xlink:href="#path_3" />
    </clipPath>
  </defs>
  <g id="512x512" clip-path="url(#clip_1)">
    <g id="Bined-Icon">
      <g id="Mask-group">
        <path d="M0 0L512 0L512 512L0 512L0 0Z" id="artboard_1" fill="none" fill-rule="evenodd" stroke="none" />
        <g clip-path="url(#mask_1)">
          <g id="Icon-Copy-4" transform="translate(52.906494 60.757202)">
            <g id="Icon">
              <g id="Box">
                <path d="M97.6314 0L383.189 0C383.608 0 384.027 0.0102799 384.445 0.0308333C384.864 0.0513932 385.282 0.0822005 385.698 0.123262C386.116 0.164323 386.532 0.215592 386.946 0.277064C387.36 0.338535 387.772 0.410137 388.183 0.491862C388.594 0.573594 389.003 0.665358 389.41 0.767148C389.816 0.868939 390.22 0.980645 390.62 1.10225C391.021 1.22387 391.418 1.35523 391.813 1.49637C392.208 1.6375 392.599 1.78823 392.986 1.94855C393.373 2.10887 393.755 2.27859 394.134 2.4577C394.513 2.63682 394.887 2.82512 395.257 3.02261C395.626 3.22009 395.99 3.42652 396.35 3.64191C396.709 3.85728 397.063 4.08134 397.411 4.3141C397.759 4.54684 398.102 4.78799 398.439 5.03755C398.775 5.28711 399.105 5.54478 399.428 5.81055C399.753 6.07632 400.07 6.34986 400.381 6.6312C400.691 6.91254 400.995 7.20133 401.29 7.49757C401.586 7.7938 401.875 8.09712 402.157 8.40753C402.438 8.71794 402.712 9.03507 402.978 9.3589C403.243 9.68275 403.5 10.0129 403.75 10.3494C404 10.6859 404.241 11.0283 404.473 11.3766C404.707 11.725 404.931 12.0788 405.146 12.4381C405.361 12.7975 405.567 13.1619 405.765 13.5313C405.963 13.9008 406.151 14.2749 406.33 14.6536C406.509 15.0323 406.678 15.4152 406.839 15.8022C406.999 16.1893 407.15 16.58 407.291 16.9745C407.432 17.369 407.563 17.7666 407.685 18.1675C407.807 18.5684 407.919 18.972 408.021 19.3783C408.123 19.7848 408.214 20.1934 408.296 20.6042C408.378 21.0152 408.45 21.4279 408.511 21.8423C408.573 22.2566 408.624 22.6723 408.665 23.0892C408.706 23.5061 408.737 23.9238 408.757 24.3422C408.777 24.7607 408.788 25.1794 408.788 25.5983L408.788 300.351C408.788 300.77 408.777 301.189 408.757 301.607C408.737 302.026 408.706 302.444 408.665 302.86C408.624 303.278 408.573 303.693 408.511 304.108C408.45 304.522 408.378 304.934 408.296 305.345C408.214 305.756 408.123 306.165 408.021 306.572C407.919 306.978 407.807 307.382 407.685 307.782C407.563 308.184 407.432 308.581 407.291 308.975C407.15 309.37 406.999 309.761 406.839 310.147C406.678 310.534 406.509 310.917 406.33 311.296C406.151 311.675 405.963 312.049 405.765 312.419C405.567 312.788 405.361 313.152 405.146 313.511C404.931 313.871 404.707 314.225 404.473 314.573C404.241 314.921 404 315.263 403.75 315.6C403.5 315.937 403.243 316.267 402.977 316.59C402.711 316.914 402.438 317.232 402.157 317.542C401.875 317.853 401.586 318.156 401.29 318.452C400.995 318.748 400.691 319.037 400.381 319.319C400.07 319.6 399.753 319.874 399.428 320.14C399.105 320.405 398.775 320.663 398.439 320.913C398.102 321.162 397.759 321.403 397.411 321.635C397.063 321.868 396.709 322.092 396.35 322.307C395.99 322.524 395.626 322.73 395.257 322.927C394.887 323.125 394.513 323.313 394.134 323.492C393.755 323.672 393.373 323.841 392.986 324C392.599 324.161 392.208 324.312 391.813 324.453C391.418 324.594 391.021 324.725 390.62 324.847C390.22 324.969 389.816 325.081 389.41 325.183C389.003 325.284 388.594 325.376 388.183 325.458C387.772 325.54 387.36 325.612 386.946 325.673C386.532 325.734 386.116 325.786 385.698 325.827C385.282 325.868 384.864 325.898 384.445 325.919C384.027 325.939 383.608 325.949 383.189 325.949L368.655 325.949C368.237 325.949 367.818 325.96 367.399 325.98C366.982 326.001 366.564 326.031 366.147 326.072C365.73 326.114 365.315 326.166 364.901 326.228C364.485 326.289 364.072 326.36 363.662 326.441C363.251 326.523 362.843 326.615 362.436 326.717C362.03 326.819 361.626 326.93 361.225 327.052C360.824 327.174 360.426 327.305 360.032 327.446C359.638 327.587 359.247 327.738 358.859 327.898C358.472 328.059 358.089 328.228 357.711 328.407C357.333 328.587 356.959 328.775 356.589 328.972C356.22 329.17 355.855 329.376 355.495 329.591C355.136 329.807 354.782 330.031 354.434 330.264C354.086 330.497 353.743 330.738 353.406 330.988C353.071 331.237 352.741 331.494 352.417 331.761C352.092 332.026 351.775 332.299 351.466 332.582C351.155 332.863 350.851 333.151 350.555 333.447C350.259 333.744 349.97 334.047 349.689 334.357C349.408 334.667 349.135 334.985 348.868 335.309C348.602 335.633 348.344 335.963 348.095 336.299C347.846 336.635 347.605 336.978 347.372 337.326C347.139 337.674 346.915 338.028 346.699 338.388C346.484 338.747 346.278 339.112 346.08 339.482C345.883 339.85 345.695 340.224 345.515 340.603C345.336 340.982 345.167 341.365 345.006 341.751C344.846 342.139 344.695 342.53 344.554 342.924C344.413 343.319 344.281 343.716 344.16 344.117C344.038 344.519 343.926 344.922 343.825 345.329C343.723 345.735 343.631 346.143 343.55 346.554C343.468 346.965 343.397 347.377 343.335 347.791C343.274 348.207 343.223 348.622 343.182 349.039C343.14 349.455 343.108 349.873 343.088 350.292C343.067 350.71 343.057 351.129 343.057 351.548L343.057 366.082C343.057 366.5 343.047 366.919 343.026 367.338C343.006 367.757 342.975 368.174 342.934 368.591C342.893 369.008 342.842 369.424 342.781 369.838C342.719 370.252 342.648 370.665 342.566 371.075C342.484 371.486 342.392 371.895 342.291 372.301C342.188 372.708 342.077 373.112 341.956 373.513C341.835 373.913 341.703 374.311 341.562 374.706C341.421 375.1 341.27 375.491 341.11 375.878C340.949 376.265 340.779 376.648 340.6 377.027C340.421 377.405 340.233 377.78 340.035 378.15C339.838 378.518 339.631 378.882 339.415 379.242C339.2 379.601 338.977 379.955 338.744 380.303C338.511 380.652 338.27 380.994 338.021 381.331C337.77 381.668 337.513 381.998 337.248 382.321C336.981 382.645 336.708 382.962 336.427 383.273C336.146 383.584 335.857 383.887 335.56 384.183C335.264 384.478 334.961 384.767 334.65 385.05C334.34 385.331 334.023 385.604 333.699 385.869C333.375 386.135 333.045 386.393 332.708 386.642C332.371 386.892 332.029 387.133 331.68 387.366C331.332 387.599 330.978 387.823 330.619 388.038C330.261 388.253 329.896 388.46 329.527 388.658C329.157 388.855 328.783 389.044 328.404 389.222C328.025 389.401 327.642 389.571 327.255 389.731C326.868 389.891 326.477 390.042 326.083 390.183C325.689 390.324 325.291 390.456 324.89 390.578C324.489 390.699 324.086 390.811 323.68 390.914C323.273 391.015 322.864 391.107 322.453 391.189C322.042 391.27 321.629 391.342 321.215 391.404C320.801 391.465 320.385 391.516 319.968 391.557C319.551 391.598 319.134 391.629 318.715 391.649C318.297 391.67 317.879 391.68 317.459 391.68L25.5983 391.68C25.1794 391.68 24.7607 391.67 24.3422 391.649C23.9238 391.629 23.5062 391.598 23.0892 391.557C22.6723 391.516 22.2566 391.465 21.8423 391.404C21.4279 391.342 21.0152 391.27 20.6042 391.189C20.1934 391.107 19.7848 391.014 19.3784 390.912C18.972 390.811 18.5684 390.699 18.1675 390.578C17.7666 390.456 17.369 390.324 16.9745 390.183C16.58 390.042 16.1893 389.891 15.8022 389.731C15.4152 389.571 15.0323 389.401 14.6536 389.222C14.2749 389.043 13.9008 388.854 13.5313 388.658C13.1619 388.46 12.7975 388.253 12.4381 388.038C12.0788 387.823 11.725 387.599 11.3766 387.366C11.0283 387.133 10.6859 386.892 10.3494 386.642C10.0129 386.393 9.68275 386.135 9.3589 385.869C9.03507 385.604 8.71795 385.331 8.40753 385.05C8.09712 384.767 7.79379 384.478 7.49756 384.183C7.20133 383.887 6.91254 383.584 6.63121 383.273C6.34986 382.962 6.07632 382.645 5.81055 382.321C5.54478 381.998 5.28711 381.668 5.03755 381.331C4.78799 380.994 4.54684 380.652 4.3141 380.303C4.08134 379.955 3.85728 379.601 3.64191 379.242C3.42652 378.882 3.22009 378.518 3.02261 378.148C2.82512 377.779 2.63682 377.405 2.4577 377.027C2.27859 376.648 2.10887 376.265 1.94856 375.878C1.78823 375.491 1.6375 375.1 1.49637 374.706C1.35524 374.311 1.22386 373.913 1.10225 373.513C0.980641 373.112 0.868942 372.708 0.767149 372.301C0.665355 371.895 0.573594 371.486 0.491862 371.075C0.410134 370.665 0.338532 370.252 0.277061 369.838C0.215592 369.424 0.164326 369.008 0.123262 368.591C0.0822005 368.174 0.05139 367.757 0.0308333 367.338C0.0102767 366.919 0 366.5 0 366.082L0 98.5319C0 98.1129 0.0102767 97.6942 0.0308333 97.2757C0.05139 96.8574 0.0822005 96.4397 0.123262 96.0227C0.164326 95.6058 0.215592 95.1902 0.277061 94.7758C0.338532 94.3614 0.410134 93.9488 0.491865 93.5378C0.573594 93.1269 0.665355 92.7183 0.767149 92.3119C0.868942 91.9055 0.980645 91.5019 1.10225 91.101C1.22386 90.7002 1.35524 90.3025 1.49637 89.9081C1.6375 89.5136 1.78823 89.1228 1.94856 88.7357C2.10887 88.3487 2.27859 87.9658 2.4577 87.5872C2.63682 87.2084 2.82512 86.8343 3.02261 86.4649C3.22009 86.0954 3.42652 85.731 3.64191 85.3717C3.85728 85.0123 4.08134 84.6585 4.3141 84.3102C4.54684 83.9618 4.78799 83.6194 5.03755 83.283C5.28711 82.9464 5.54478 82.6162 5.81055 82.2924C6.07632 81.9686 6.34986 81.6515 6.63121 81.3411C6.91254 81.0306 7.20133 80.7273 7.49757 80.4311C7.7938 80.1348 8.09712 79.8461 8.40753 79.5648C8.71795 79.2834 9.03507 79.0098 9.3589 78.7441C9.68275 78.4783 10.0129 78.2206 10.3494 77.9711C10.6859 77.7215 11.0283 77.4803 11.3766 77.2477C11.725 77.0149 12.0788 76.7908 12.4381 76.5754C12.7975 76.36 13.1619 76.1536 13.5313 75.9561C13.9008 75.7587 14.2749 75.5703 14.6536 75.3912C15.0323 75.2121 15.4152 75.0424 15.8022 74.8821C16.1893 74.7217 16.58 74.571 16.9745 74.4299C17.369 74.2887 17.7666 74.1573 18.1675 74.0357C18.5684 73.9142 18.972 73.8025 19.3784 73.7007C19.7848 73.5989 20.1934 73.5071 20.6042 73.4254C21.0152 73.3437 21.4279 73.2721 21.8423 73.2105C22.2566 73.1491 22.6723 73.0978 23.0892 73.0568C23.5062 73.0157 23.9238 72.9849 24.3422 72.9643C24.7607 72.9438 25.1794 72.9335 25.5983 72.9335L46.4348 72.9335C46.8538 72.9335 47.2725 72.9233 47.6909 72.9027C48.1093 72.8822 48.527 72.8514 48.944 72.8103C49.3609 72.7692 49.7765 72.7179 50.1909 72.6564C50.6052 72.5949 51.0179 72.5234 51.4289 72.4417C51.8397 72.3599 52.2484 72.2681 52.6548 72.1664C53.0611 72.0646 53.4647 71.9528 53.8657 71.8312C54.2665 71.7097 54.6641 71.5783 55.0586 71.4371C55.4531 71.2961 55.8439 71.1454 56.2309 70.9851C56.6179 70.8246 57.0007 70.6549 57.3795 70.4758C57.7582 70.2967 58.1323 70.1084 58.5018 69.9109C58.8712 69.7135 59.2356 69.5071 59.5949 69.2917C59.9542 69.0763 60.3081 68.8522 60.6565 68.6194C61.0048 68.3866 61.3472 68.1455 61.6837 67.896C62.0202 67.6465 62.3504 67.3888 62.6743 67.123C62.9981 66.8572 63.3152 66.5837 63.6256 66.3023C63.936 66.0209 64.2393 65.7322 64.5356 65.436C64.8317 65.1397 65.1205 64.8364 65.4019 64.526C65.6832 64.2156 65.9568 63.8985 66.2226 63.5745C66.4884 63.2507 66.746 62.9206 66.9956 62.5841C67.2451 62.2476 67.4862 61.9052 67.719 61.5569C67.9518 61.2085 68.1759 60.8547 68.3913 60.4954C68.6067 60.136 68.813 59.7717 69.0104 59.4022C69.208 59.0327 69.3963 58.6586 69.5754 58.2799C69.7545 57.9012 69.9243 57.5183 70.0846 57.1314C70.2449 56.7443 70.3956 56.3535 70.5367 55.959C70.6779 55.5646 70.8093 55.1669 70.9308 54.7661C71.0524 54.3651 71.1642 53.9614 71.266 53.555C71.3678 53.1487 71.4596 52.7401 71.5413 52.3291C71.623 51.9183 71.6945 51.5057 71.756 51.0913C71.8175 50.6769 71.8688 50.2612 71.9099 49.8442C71.951 49.4273 71.9818 49.0097 72.0022 48.5914C72.0228 48.1729 72.0331 47.7542 72.0331 47.3353L72.0331 25.5983C72.0331 25.1794 72.0434 24.7607 72.064 24.3422C72.0845 23.9238 72.1153 23.5061 72.1563 23.0892C72.1974 22.6723 72.2487 22.2566 72.3101 21.8423C72.3717 21.4279 72.4433 21.0152 72.525 20.6042C72.6067 20.1934 72.6984 19.7848 72.8003 19.3783C72.9021 18.972 73.0138 18.5684 73.1353 18.1675C73.2569 17.7666 73.3883 17.369 73.5295 16.9745C73.6706 16.58 73.8213 16.1893 73.9816 15.8022C74.1419 15.4152 74.3117 15.0323 74.4909 14.6536C74.67 14.2749 74.8583 13.9008 75.0558 13.5313C75.2532 13.1619 75.4596 12.7975 75.675 12.4381C75.8904 12.0788 76.1144 11.725 76.3472 11.3766C76.5799 11.0283 76.8211 10.6859 77.0707 10.3494C77.3202 10.0129 77.5779 9.68275 77.8436 9.3589C78.1094 9.03507 78.383 8.71794 78.6644 8.40753C78.9456 8.09712 79.2344 7.7938 79.5307 7.49757C79.827 7.20133 80.1303 6.91254 80.4407 6.6312C80.7511 6.34986 81.0682 6.07632 81.392 5.81055C81.7159 5.54478 82.0461 5.28711 82.3825 5.03755C82.719 4.78799 83.0614 4.54684 83.4098 4.3141C83.758 4.08134 84.1119 3.85728 84.4713 3.64191C84.8306 3.42652 85.195 3.22009 85.5644 3.02261C85.9339 2.82512 86.308 2.63682 86.6867 2.4577C87.0654 2.27859 87.4482 2.10887 87.8353 1.94855C88.2224 1.78823 88.6132 1.6375 89.0076 1.49637C89.4021 1.35523 89.7998 1.22387 90.2006 1.10225C90.6016 0.980645 91.0052 0.868939 91.4115 0.767148C91.8179 0.665358 92.2265 0.573594 92.6374 0.491862C93.0483 0.410137 93.461 0.338535 93.8754 0.277064C94.2898 0.215592 94.7054 0.164323 95.1223 0.123262C95.5393 0.0822005 95.9569 0.0513932 96.3753 0.0308333C96.7938 0.0102799 97.2125 0 97.6314 0L97.6314 0Z" id="Outer-Shape" fill="#36C38E" fill-rule="evenodd" stroke="#36C38E" stroke-width="1" />
                <path d="M90.3329 0L341.77 0C342.189 0 342.608 0.01028 343.026 0.0308333C343.445 0.0513932 343.863 0.0822005 344.279 0.123262C344.697 0.164323 345.113 0.215593 345.527 0.277064C345.941 0.338535 346.353 0.410137 346.764 0.491862C347.175 0.573594 347.584 0.665358 347.991 0.767149C348.397 0.868939 348.801 0.980645 349.201 1.10225C349.602 1.22387 349.999 1.35523 350.394 1.49637C350.789 1.6375 351.18 1.78823 351.567 1.94856C351.953 2.10887 352.336 2.27859 352.715 2.4577C353.094 2.63682 353.468 2.82512 353.838 3.02261C354.207 3.22009 354.571 3.42652 354.93 3.64191C355.29 3.85728 355.644 4.08134 355.992 4.3141C356.34 4.54684 356.683 4.78799 357.019 5.03755C357.356 5.28711 357.686 5.54478 358.009 5.81055C358.333 6.07632 358.651 6.34986 358.962 6.63121C359.272 6.91254 359.575 7.20133 359.871 7.49757C360.167 7.7938 360.456 8.09712 360.738 8.40753C361.019 8.71795 361.293 9.03507 361.559 9.3589C361.824 9.68275 362.081 10.0129 362.331 10.3494C362.581 10.6859 362.822 11.0283 363.054 11.3766C363.287 11.725 363.512 12.0788 363.727 12.4381C363.943 12.7975 364.149 13.1619 364.346 13.5313C364.544 13.9008 364.732 14.2749 364.911 14.6536C365.09 15.0323 365.259 15.4152 365.42 15.8022C365.58 16.1893 365.731 16.58 365.872 16.9745C366.013 17.369 366.144 17.7666 366.266 18.1675C366.388 18.5684 366.5 18.972 366.602 19.3784C366.704 19.7848 366.795 20.1934 366.877 20.6043C366.959 21.0152 367.031 21.4279 367.092 21.8423C367.154 22.2566 367.205 22.6723 367.246 23.0892C367.287 23.5062 367.317 23.9238 367.338 24.3422C367.358 24.7607 367.369 25.1794 367.369 25.5983L367.369 267.326C367.369 267.744 367.358 268.163 367.338 268.582C367.317 269 367.287 269.418 367.246 269.834C367.205 270.252 367.154 270.668 367.092 271.082C367.031 271.496 366.959 271.908 366.877 272.319C366.795 272.73 366.704 273.139 366.602 273.546C366.5 273.952 366.388 274.356 366.266 274.756C366.144 275.157 366.013 275.554 365.872 275.949C365.731 276.344 365.58 276.735 365.42 277.122C365.259 277.509 365.09 277.891 364.911 278.27C364.732 278.649 364.544 279.024 364.346 279.393C364.149 279.762 363.943 280.126 363.727 280.486C363.512 280.845 363.287 281.199 363.054 281.547C362.822 281.895 362.581 282.238 362.331 282.575C362.081 282.911 361.824 283.241 361.559 283.564C361.293 283.889 361.019 284.206 360.738 284.517C360.456 284.827 360.167 285.131 359.871 285.426C359.575 285.722 359.272 286.011 358.962 286.293C358.651 286.574 358.333 286.848 358.009 287.114C357.686 287.379 357.356 287.637 357.019 287.886C356.683 288.136 356.34 288.377 355.992 288.609C355.644 288.843 355.29 289.067 354.93 289.282C354.571 289.498 354.207 289.704 353.838 289.901C353.468 290.099 353.094 290.288 352.715 290.466C352.336 290.646 351.953 290.815 351.567 290.975C351.18 291.135 350.789 291.286 350.394 291.427C349.999 291.568 349.602 291.7 349.201 291.821C348.801 291.943 348.397 292.055 347.991 292.158C347.584 292.259 347.175 292.35 346.764 292.432C346.353 292.514 345.941 292.586 345.527 292.647C345.113 292.709 344.697 292.76 344.279 292.801C343.863 292.842 343.445 292.873 343.026 292.893C342.608 292.914 342.189 292.924 341.77 292.924L333.897 292.924C333.478 292.924 333.059 292.934 332.641 292.955C332.223 292.975 331.805 293.006 331.387 293.047C330.97 293.088 330.555 293.139 330.141 293.202C329.727 293.263 329.314 293.335 328.902 293.415C328.491 293.497 328.083 293.589 327.677 293.692C327.27 293.793 326.867 293.905 326.467 294.026C326.065 294.148 325.667 294.279 325.274 294.421C324.879 294.562 324.488 294.712 324.101 294.873C323.714 295.033 323.331 295.203 322.953 295.381C322.574 295.561 322.199 295.749 321.83 295.946C321.46 296.144 321.096 296.351 320.737 296.566C320.378 296.781 320.024 297.005 319.676 297.238C319.327 297.472 318.984 297.713 318.648 297.962C318.312 298.211 317.981 298.469 317.657 298.735C317.334 299 317.017 299.274 316.706 299.556C316.396 299.837 316.092 300.125 315.797 300.421C315.5 300.718 315.211 301.021 314.93 301.331C314.649 301.641 314.375 301.959 314.109 302.283C313.844 302.607 313.586 302.937 313.336 303.273C313.086 303.61 312.845 303.952 312.612 304.3C312.38 304.649 312.156 305.002 311.941 305.362C311.725 305.722 311.518 306.086 311.322 306.456C311.124 306.825 310.935 307.198 310.757 307.577C310.577 307.956 310.407 308.339 310.246 308.726C310.086 309.113 309.935 309.504 309.794 309.898C309.653 310.293 309.522 310.691 309.4 311.091C309.279 311.493 309.168 311.897 309.065 312.303C308.964 312.709 308.873 313.118 308.791 313.528C308.709 313.939 308.637 314.352 308.576 314.766C308.514 315.181 308.463 315.597 308.422 316.013C308.381 316.43 308.35 316.847 308.33 317.266C308.309 317.685 308.299 318.103 308.299 318.522L308.299 326.397C308.299 326.815 308.289 327.234 308.268 327.653C308.248 328.07 308.217 328.488 308.175 328.905C308.134 329.322 308.082 329.737 308.021 330.151C307.96 330.567 307.888 330.98 307.806 331.39C307.725 331.801 307.634 332.21 307.531 332.616C307.43 333.022 307.318 333.426 307.197 333.828C307.075 334.228 306.943 334.626 306.802 335.02C306.661 335.414 306.511 335.805 306.35 336.193C306.19 336.58 306.02 336.963 305.842 337.342C305.662 337.719 305.473 338.093 305.277 338.463C305.079 338.833 304.872 339.197 304.657 339.557C304.441 339.916 304.217 340.27 303.985 340.618C303.751 340.966 303.51 341.309 303.261 341.646C303.012 341.981 302.754 342.311 302.488 342.636C302.222 342.96 301.948 343.277 301.667 343.586C301.386 343.897 301.098 344.201 300.802 344.498C300.505 344.793 300.201 345.082 299.89 345.363C299.581 345.645 299.264 345.919 298.94 346.184C298.616 346.45 298.286 346.708 297.95 346.957C297.613 347.206 297.271 347.447 296.922 347.681C296.573 347.913 296.219 348.137 295.861 348.353C295.501 348.568 295.137 348.775 294.767 348.972C294.397 349.169 294.023 349.358 293.646 349.537C293.267 349.716 292.884 349.886 292.497 350.046C292.109 350.206 291.718 350.357 291.325 350.498C290.93 350.639 290.532 350.771 290.132 350.892C289.73 351.014 289.326 351.126 288.92 351.227C288.514 351.329 288.105 351.421 287.695 351.502C287.284 351.584 286.871 351.655 286.456 351.717C286.041 351.778 285.626 351.829 285.21 351.87C284.792 351.913 284.375 351.944 283.957 351.964C283.538 351.985 283.12 351.995 282.701 351.995L25.5983 351.995C25.1794 351.995 24.7607 351.985 24.3422 351.964C23.9238 351.944 23.5062 351.913 23.0892 351.87C22.6723 351.829 22.2566 351.778 21.8423 351.717C21.4279 351.655 21.0152 351.584 20.6042 351.502C20.1934 351.421 19.7848 351.329 19.3783 351.227C18.972 351.126 18.5684 351.014 18.1675 350.892C17.7666 350.771 17.369 350.639 16.9745 350.498C16.58 350.357 16.1893 350.206 15.8022 350.046C15.4152 349.886 15.0323 349.716 14.6536 349.537C14.2749 349.358 13.9008 349.169 13.5313 348.972C13.1619 348.775 12.7975 348.568 12.4381 348.353C12.0788 348.137 11.725 347.913 11.3766 347.681C11.0283 347.447 10.6859 347.206 10.3494 346.957C10.0129 346.708 9.68275 346.45 9.3589 346.184C9.03507 345.918 8.71794 345.644 8.40753 345.363C8.09712 345.082 7.79379 344.793 7.49756 344.498C7.20133 344.201 6.91254 343.897 6.63121 343.586C6.34986 343.277 6.07632 342.96 5.81055 342.636C5.54478 342.311 5.28711 341.981 5.03755 341.646C4.78799 341.309 4.54684 340.966 4.3141 340.618C4.08134 340.27 3.85728 339.916 3.64191 339.557C3.42652 339.197 3.22009 338.833 3.02261 338.463C2.82512 338.093 2.63682 337.719 2.4577 337.342C2.27859 336.963 2.10887 336.58 1.94856 336.193C1.78823 335.805 1.6375 335.414 1.49637 335.02C1.35523 334.626 1.22387 334.228 1.10225 333.828C0.980645 333.426 0.868939 333.022 0.767149 332.616C0.665358 332.21 0.573594 331.801 0.491862 331.39C0.41013 330.98 0.338535 330.567 0.277064 330.151C0.215592 329.737 0.164323 329.322 0.123262 328.905C0.0822005 328.488 0.0513932 328.07 0.0308333 327.653C0.0102799 327.234 0 326.815 0 326.397L0 91.1422C0 90.7232 0.0102799 90.3045 0.0308333 89.8861C0.0513932 89.4676 0.0822005 89.0499 0.123262 88.633C0.164323 88.2161 0.215592 87.8005 0.277064 87.386C0.338535 86.9716 0.410137 86.559 0.491862 86.1481C0.573594 85.7373 0.665358 85.3286 0.767149 84.9222C0.868939 84.5158 0.980645 84.1122 1.10225 83.7113C1.22387 83.3104 1.35523 82.9127 1.49637 82.5182C1.6375 82.1238 1.78823 81.7332 1.94856 81.3461C2.10887 80.959 2.27859 80.5761 2.4577 80.1975C2.63682 79.8187 2.82512 79.4446 3.02261 79.0752C3.22009 78.7056 3.42652 78.3412 3.64191 77.9819C3.85728 77.6226 4.08134 77.2687 4.3141 76.9203C4.54684 76.5721 4.78799 76.2297 5.03755 75.8933C5.28711 75.5567 5.54478 75.2265 5.81055 74.9027C6.07632 74.5789 6.34986 74.2617 6.63121 73.9512C6.91254 73.6409 7.20133 73.3376 7.49757 73.0414C7.7938 72.7452 8.09712 72.4563 8.40753 72.175C8.71794 71.8937 9.03507 71.6202 9.3589 71.3544C9.68275 71.0886 10.0129 70.8309 10.3494 70.5813C10.6859 70.3318 11.0283 70.0906 11.3766 69.8578C11.725 69.6251 12.0788 69.4011 12.4381 69.1857C12.7975 68.9703 13.1619 68.7639 13.5313 68.5664C13.9008 68.3689 14.2749 68.1806 14.6536 68.0015C15.0323 67.8224 15.4152 67.6527 15.8022 67.4924C16.1893 67.332 16.58 67.1813 16.9745 67.0401C17.369 66.899 17.7666 66.7677 18.1675 66.646C18.5684 66.5244 18.972 66.4127 19.3783 66.311C19.7848 66.2092 20.1934 66.1174 20.6042 66.0357C21.0152 65.9539 21.4279 65.8823 21.8423 65.8209C22.2566 65.7594 22.6723 65.7082 23.0892 65.6671C23.5062 65.626 23.9238 65.5952 24.3422 65.5746C24.7607 65.5541 25.1794 65.5439 25.5983 65.5439L39.1363 65.5439C39.5552 65.5439 39.9739 65.5336 40.3924 65.513C40.8108 65.4924 41.2285 65.4616 41.6454 65.4205C42.0623 65.3794 42.4779 65.3281 42.8923 65.2667C43.3067 65.2053 43.7193 65.1337 44.1303 65.052C44.5412 64.9702 44.9498 64.8784 45.3562 64.7767C45.7625 64.6749 46.1661 64.5632 46.5671 64.4415C46.968 64.3199 47.3657 64.1885 47.76 64.0475C48.1545 63.9063 48.5453 63.7555 48.9324 63.5952C49.3194 63.4349 49.7023 63.2652 50.0809 63.0861C50.4597 62.907 50.8338 62.7187 51.2033 62.5212C51.5727 62.3237 51.9371 62.1172 52.2964 61.9018C52.6558 61.6865 53.0096 61.4624 53.3579 61.2298C53.7063 60.997 54.0487 60.7558 54.3852 60.5063C54.7217 60.2567 55.0519 59.999 55.3757 59.7332C55.6995 59.4675 56.0166 59.194 56.327 58.9126C56.6375 58.6312 56.9408 58.3424 57.237 58.0461C57.5333 57.75 57.822 57.4467 58.1033 57.1363C58.3847 56.8258 58.6583 56.5087 58.924 56.1848C59.1898 55.861 59.4475 55.5308 59.697 55.1943C59.9466 54.8579 60.1878 54.5154 60.4205 54.1671C60.6532 53.8188 60.8773 53.465 61.0927 53.1057C61.3081 52.7464 61.5145 52.3819 61.7121 52.0124C61.9095 51.643 62.0978 51.2689 62.277 50.8902C62.4561 50.5115 62.6257 50.1286 62.7861 49.7415C62.9464 49.3544 63.0971 48.9637 63.2382 48.5694C63.3794 48.1749 63.5108 47.7772 63.6324 47.3762C63.754 46.9754 63.8657 46.5718 63.9674 46.1654C64.0692 45.7589 64.161 45.3503 64.2427 44.9394C64.3245 44.5286 64.3961 44.116 64.4576 43.7016C64.519 43.2871 64.5703 42.8714 64.6113 42.4545C64.6524 42.0377 64.6832 41.62 64.7038 41.2015C64.7243 40.7831 64.7346 40.3645 64.7346 39.9456L64.7346 25.5983C64.7346 25.1794 64.7449 24.7607 64.7654 24.3422C64.786 23.9238 64.8168 23.5062 64.8578 23.0892C64.8989 22.6723 64.9502 22.2566 65.0117 21.8423C65.0732 21.4279 65.1447 21.0152 65.2264 20.6043C65.3082 20.1934 65.4 19.7848 65.5017 19.3784C65.6035 18.972 65.7153 18.5684 65.8369 18.1675C65.9585 17.7666 66.0899 17.369 66.231 16.9745C66.372 16.58 66.5228 16.1893 66.6832 15.8022C66.8436 15.4152 67.0132 15.0323 67.1923 14.6536C67.3714 14.2749 67.5597 13.9008 67.7572 13.5313C67.9547 13.1619 68.161 12.7975 68.3764 12.4381C68.5918 12.0788 68.8159 11.725 69.0487 11.3766C69.2815 11.0283 69.5226 10.6859 69.7721 10.3494C70.0218 10.0129 70.2794 9.68275 70.5451 9.3589C70.8109 9.03507 71.0844 8.71795 71.3658 8.40753C71.6472 8.09712 71.936 7.7938 72.2321 7.49757C72.5284 7.20133 72.8317 6.91254 73.1421 6.63121C73.4525 6.34986 73.7697 6.07632 74.0936 5.81055C74.4174 5.54478 74.7475 5.28711 75.084 5.03755C75.4205 4.78799 75.7629 4.54684 76.1112 4.3141C76.4596 4.08134 76.8134 3.85728 77.1727 3.64191C77.5321 3.42652 77.8964 3.22009 78.2659 3.02261C78.6354 2.82512 79.0095 2.63682 79.3882 2.4577C79.7669 2.27859 80.1498 2.10887 80.5368 1.94856C80.9238 1.78823 81.3146 1.6375 81.7091 1.49637C82.1035 1.35523 82.5012 1.22387 82.902 1.10225C83.303 0.980645 83.7067 0.868939 84.1131 0.767149C84.5194 0.665358 84.928 0.573594 85.339 0.491862C85.7498 0.410137 86.1624 0.338535 86.5768 0.277064C86.9912 0.215593 87.4069 0.164323 87.8239 0.123262C88.2408 0.0822005 88.6585 0.0513932 89.0769 0.0308333C89.4953 0.01028 89.9139 0 90.3329 0L90.3329 0L90.3329 0Z" transform="translate(19.808838 20.709595)" id="Middle-Shape" fill="#035841" fill-rule="evenodd" stroke="none" />
                <g id="HEX" transform="translate(57.62671 56.408813)">
                  <path d="M77.0051 0L266.136 0C266.555 0 266.973 0.0102734 267.392 0.0308333C267.811 0.0513932 268.228 0.0822005 268.645 0.123268C269.061 0.164323 269.477 0.215586 269.892 0.277057C270.306 0.338529 270.719 0.41013 271.13 0.491862C271.54 0.573594 271.949 0.665352 272.355 0.767148C272.762 0.868945 273.166 0.980638 273.567 1.10225C273.967 1.22387 274.365 1.35523 274.76 1.49637C275.155 1.6375 275.545 1.78823 275.932 1.94855C276.319 2.10888 276.702 2.27859 277.081 2.45771C277.46 2.63682 277.833 2.82513 278.202 3.0226C278.572 3.22009 278.936 3.42652 279.296 3.6419C279.656 3.85728 280.009 4.08134 280.358 4.31409C280.706 4.54684 281.048 4.788 281.385 5.03755C281.722 5.28711 282.052 5.54478 282.375 5.81055C282.699 6.07632 283.017 6.34987 283.327 6.6312C283.637 6.91254 283.94 7.20133 284.237 7.49758C284.533 7.79379 284.821 8.09711 285.102 8.40754C285.384 8.71794 285.658 9.03507 285.923 9.35889C286.189 9.68275 286.447 10.0129 286.696 10.3494C286.946 10.6859 287.188 11.0283 287.42 11.3766C287.653 11.725 287.877 12.0788 288.092 12.4381C288.307 12.7975 288.514 13.1619 288.712 13.5313C288.909 13.9008 289.097 14.2749 289.277 14.6536C289.455 15.0323 289.625 15.4152 289.785 15.8023C289.946 16.1893 290.096 16.58 290.237 16.9745C290.379 17.369 290.51 17.7666 290.632 18.1675C290.753 18.5684 290.865 18.972 290.966 19.3783C291.069 19.7848 291.161 20.1934 291.243 20.6042C291.325 21.0152 291.396 21.4279 291.458 21.8423C291.519 22.2566 291.57 22.6723 291.611 23.0892C291.652 23.5061 291.683 23.9238 291.703 24.3422C291.724 24.7607 291.734 25.1794 291.734 25.5983L291.734 209.164C291.734 209.547 291.725 209.931 291.705 210.314C291.687 210.698 291.659 211.081 291.622 211.463C291.584 211.844 291.537 212.225 291.48 212.605C291.424 212.985 291.359 213.363 291.284 213.74C291.209 214.115 291.124 214.489 291.031 214.863C290.938 215.235 290.835 215.604 290.724 215.972C290.612 216.339 290.492 216.703 290.364 217.064C290.234 217.426 290.096 217.784 289.949 218.138C289.802 218.493 289.647 218.844 289.483 219.191C289.318 219.538 289.145 219.881 288.964 220.22C288.783 220.558 288.595 220.891 288.398 221.22C288.2 221.55 287.994 221.874 287.782 222.193C287.569 222.512 287.348 222.826 287.119 223.135C286.891 223.443 286.655 223.745 286.411 224.041C286.168 224.338 285.917 224.629 285.658 224.913C285.401 225.198 285.137 225.476 284.865 225.748C284.593 226.018 284.315 226.283 284.032 226.541C283.748 226.798 283.457 227.049 283.16 227.292C282.863 227.536 282.56 227.772 282.252 228C281.944 228.229 281.63 228.45 281.312 228.664C280.992 228.877 280.668 229.082 280.339 229.279C280.009 229.477 279.675 229.666 279.337 229.847C278.998 230.028 278.655 230.2 278.308 230.364C277.962 230.528 277.612 230.683 277.257 230.83C276.902 230.978 276.544 231.116 276.183 231.245C275.821 231.375 275.457 231.495 275.089 231.607C274.722 231.718 274.352 231.821 273.98 231.914C273.608 232.007 273.233 232.091 272.857 232.165C272.48 232.24 272.102 232.306 271.722 232.363C271.343 232.418 270.962 232.465 270.58 232.503C270.198 232.54 269.815 232.569 269.431 232.588C269.048 232.606 268.665 232.616 268.281 232.617L268.278 232.617C267.894 232.617 267.511 232.626 267.127 232.644C266.744 232.664 266.361 232.692 265.979 232.73C265.597 232.767 265.216 232.814 264.837 232.87C264.457 232.926 264.079 232.992 263.702 233.068C263.326 233.142 262.951 233.225 262.579 233.318C262.207 233.412 261.837 233.514 261.47 233.626C261.102 233.737 260.738 233.858 260.378 233.987C260.016 234.116 259.657 234.254 259.302 234.402C258.949 234.549 258.598 234.704 258.251 234.868C257.904 235.032 257.561 235.204 257.222 235.385C256.884 235.566 256.55 235.756 256.22 235.954C255.891 236.15 255.568 236.355 255.249 236.568C254.929 236.782 254.615 237.003 254.307 237.232C253.999 237.46 253.696 237.697 253.399 237.94C253.103 238.184 252.813 238.434 252.529 238.691C252.244 238.949 251.966 239.214 251.694 239.485C251.423 239.757 251.159 240.035 250.9 240.319C250.643 240.604 250.393 240.894 250.15 241.191C249.906 241.487 249.67 241.789 249.441 242.098C249.213 242.406 248.991 242.72 248.777 243.04C248.565 243.358 248.359 243.682 248.161 244.012C247.964 244.341 247.776 244.675 247.595 245.012C247.414 245.352 247.241 245.695 247.078 246.042C246.913 246.389 246.757 246.74 246.61 247.095C246.463 247.449 246.325 247.806 246.197 248.168C246.067 248.529 245.947 248.893 245.835 249.26C245.724 249.628 245.621 249.998 245.528 250.37C245.435 250.743 245.35 251.117 245.275 251.493C245.201 251.869 245.136 252.248 245.079 252.628C245.023 253.008 244.976 253.388 244.937 253.769C244.9 254.152 244.872 254.535 244.854 254.918C244.834 255.301 244.825 255.685 244.825 256.068L244.825 256.072C244.825 256.456 244.816 256.84 244.797 257.224C244.778 257.607 244.75 257.989 244.712 258.371C244.675 258.753 244.628 259.134 244.572 259.514C244.515 259.893 244.449 260.271 244.374 260.647C244.299 261.024 244.215 261.398 244.122 261.77C244.028 262.143 243.926 262.513 243.816 262.88C243.705 263.247 243.584 263.612 243.454 263.974C243.325 264.334 243.186 264.692 243.04 265.047C242.893 265.402 242.737 265.753 242.574 266.1C242.41 266.447 242.237 266.79 242.057 267.128C241.876 267.467 241.686 267.8 241.488 268.129C241.291 268.458 241.086 268.782 240.872 269.102C240.659 269.421 240.439 269.734 240.21 270.042C239.981 270.351 239.745 270.653 239.502 270.95C239.258 271.247 239.008 271.538 238.751 271.823C238.492 272.107 238.227 272.385 237.955 272.655C237.685 272.927 237.407 273.192 237.123 273.449C236.838 273.707 236.547 273.958 236.25 274.202C235.953 274.445 235.651 274.681 235.343 274.91C235.035 275.139 234.722 275.359 234.402 275.572C234.084 275.786 233.759 275.991 233.429 276.188C233.1 276.386 232.767 276.576 232.428 276.757C232.09 276.937 231.747 277.11 231.4 277.274C231.053 277.437 230.702 277.593 230.347 277.74C229.993 277.886 229.635 278.025 229.274 278.154C228.912 278.283 228.548 278.403 228.181 278.514C227.814 278.626 227.443 278.728 227.07 278.822C226.698 278.915 226.324 278.999 225.947 279.074C225.572 279.149 225.194 279.215 224.814 279.27C224.434 279.327 224.053 279.375 223.671 279.412C223.289 279.45 222.907 279.478 222.524 279.497C222.14 279.516 221.756 279.525 221.372 279.525L25.5983 279.525C25.1794 279.525 24.7607 279.514 24.3422 279.494C23.9238 279.474 23.5061 279.443 23.0892 279.402C22.6723 279.361 22.2566 279.31 21.8423 279.248C21.4279 279.187 21.0152 279.115 20.6042 279.033C20.1934 278.951 19.7848 278.86 19.3783 278.758C18.972 278.656 18.5684 278.544 18.1675 278.422C17.7666 278.3 17.369 278.169 16.9745 278.028C16.58 277.887 16.1893 277.736 15.8023 277.576C15.4152 277.415 15.0323 277.246 14.6536 277.067C14.2749 276.888 13.9008 276.7 13.5313 276.502C13.1619 276.304 12.7975 276.098 12.4381 275.883C12.0788 275.668 11.725 275.444 11.3766 275.21C11.0283 274.978 10.6859 274.737 10.3494 274.487C10.0129 274.237 9.68275 273.98 9.35889 273.715C9.03507 273.449 8.71794 273.175 8.40754 272.894C8.09711 272.612 7.79379 272.323 7.49755 272.027C7.20133 271.732 6.91254 271.428 6.6312 271.118C6.34987 270.807 6.07631 270.49 5.81055 270.165C5.54478 269.842 5.28711 269.512 5.03755 269.176C4.788 268.839 4.54684 268.496 4.31409 268.148C4.08134 267.8 3.85728 267.446 3.6419 267.087C3.42652 266.727 3.22009 266.363 3.0226 265.994C2.82513 265.625 2.63682 265.25 2.45771 264.871C2.27859 264.492 2.10888 264.11 1.94855 263.723C1.78823 263.336 1.6375 262.945 1.49637 262.55C1.35523 262.155 1.22387 261.758 1.10225 261.357C0.980638 260.957 0.868945 260.553 0.767148 260.147C0.665352 259.74 0.573594 259.331 0.491862 258.92C0.41013 258.509 0.338529 258.097 0.277057 257.683C0.215586 257.269 0.164323 256.853 0.123268 256.435C0.0822005 256.019 0.0513932 255.601 0.0308333 255.183C0.0102734 254.764 0 254.345 0 253.926L0 77.6477C0 77.2288 0.0102734 76.8101 0.0308333 76.3918C0.0513932 75.9733 0.0822005 75.5556 0.123268 75.1387C0.164323 74.7217 0.215586 74.3061 0.277057 73.8917C0.338529 73.4773 0.41013 73.0647 0.491862 72.6538C0.573594 72.2429 0.665352 71.8342 0.767148 71.4279C0.868945 71.0215 0.980638 70.6178 1.10225 70.2169C1.22387 69.8161 1.35523 69.4184 1.49637 69.0239C1.6375 68.6295 1.78823 68.2387 1.94855 67.8518C2.10888 67.4647 2.27859 67.0818 2.45771 66.703C2.63682 66.3244 2.82513 65.9503 3.0226 65.5809C3.22009 65.2113 3.42652 64.8469 3.6419 64.4876C3.85728 64.1283 4.08134 63.7744 4.31409 63.426C4.54684 63.0778 4.788 62.7354 5.03755 62.3988C5.28711 62.0624 5.54478 61.7323 5.81055 61.4084C6.07631 61.0845 6.34987 60.7674 6.6312 60.457C6.91254 60.1466 7.20133 59.8433 7.49758 59.547C7.79379 59.2508 8.09711 58.962 8.40754 58.6807C8.71794 58.3993 9.03507 58.1257 9.35889 57.8599C9.68275 57.5943 10.0129 57.3366 10.3494 57.087C10.6859 56.8375 11.0283 56.5963 11.3766 56.3635C11.725 56.1309 12.0788 55.9068 12.4381 55.6914C12.7975 55.4761 13.1619 55.2696 13.5313 55.0721C13.9008 54.8746 14.2749 54.6863 14.6536 54.5072C15.0323 54.3281 15.4152 54.1584 15.8023 53.9981C16.1893 53.8378 16.58 53.687 16.9745 53.5458C17.369 53.4047 17.7666 53.2734 18.1675 53.1518C18.5684 53.0301 18.972 52.9184 19.3783 52.8166C19.7848 52.7149 20.1934 52.6231 20.6042 52.5413C21.0152 52.4596 21.4279 52.388 21.8423 52.3266C22.2566 52.265 22.6723 52.2138 23.0892 52.1728C23.5061 52.1317 23.9238 52.1009 24.3422 52.0803C24.7607 52.0597 25.1794 52.0494 25.5983 52.0494L25.8086 52.0494C26.2275 52.0494 26.6462 52.0392 27.0647 52.0187C27.483 51.9981 27.9007 51.9673 28.3177 51.9262C28.7346 51.8851 29.1502 51.8339 29.5646 51.7724C29.979 51.711 30.3916 51.6394 30.8026 51.5576C31.2134 51.4759 31.6221 51.3841 32.0285 51.2823C32.4348 51.1806 32.8384 51.0689 33.2394 50.9472C33.6402 50.8256 34.0379 50.6943 34.4323 50.5532C34.8268 50.412 35.2176 50.2612 35.6046 50.1009C35.9917 49.9406 36.3746 49.7709 36.7532 49.5918C37.132 49.4126 37.5061 49.2243 37.8755 49.0269C38.245 48.8294 38.6094 48.6229 38.9687 48.4076C39.3281 48.1922 39.6819 47.9681 40.0302 47.7353C40.3786 47.5026 40.721 47.2615 41.0574 47.0118C41.394 46.7623 41.7242 46.5047 42.048 46.2389C42.3718 45.9731 42.6889 45.6996 42.9993 45.4183C43.3097 45.137 43.613 44.8481 43.9093 44.5519C44.2056 44.2557 44.4943 43.9524 44.7756 43.6419C45.057 43.3315 45.3305 43.0144 45.5963 42.6906C45.8621 42.3668 46.1198 42.0366 46.3693 41.7C46.6189 41.3636 46.8601 41.0212 47.0927 40.6728C47.3255 40.3245 47.5496 39.9707 47.765 39.6114C47.9804 39.252 48.1868 38.8875 48.3842 38.5181C48.5817 38.1487 48.77 37.7746 48.9491 37.3958C49.1283 37.0172 49.298 36.6343 49.4583 36.2472C49.6187 35.8601 49.7694 35.4694 49.9104 35.0749C50.0516 34.6806 50.183 34.2829 50.3047 33.8819C50.4262 33.4811 50.5379 33.0775 50.6397 32.6711C50.7415 32.2647 50.8333 31.856 50.915 31.4452C50.9967 31.0343 51.0683 30.6216 51.1299 30.2072C51.1913 29.7928 51.2426 29.3771 51.2836 28.9603C51.3247 28.5434 51.3555 28.1257 51.376 27.7072C51.3965 27.2888 51.4069 26.8701 51.4069 26.4511L51.4069 25.5983C51.4069 25.1794 51.4171 24.7607 51.4377 24.3422C51.4583 23.9238 51.4891 23.5061 51.5301 23.0892C51.5711 22.6723 51.6225 22.2566 51.684 21.8423C51.7455 21.4279 51.817 21.0152 51.8987 20.6042C51.9804 20.1934 52.0722 19.7848 52.174 19.3783C52.2758 18.972 52.3876 18.5684 52.5092 18.1675C52.6308 17.7666 52.7622 17.369 52.9033 16.9745C53.0443 16.58 53.195 16.1893 53.3554 15.8023C53.5158 15.4152 53.6855 15.0323 53.8646 14.6536C54.0437 14.2749 54.232 13.9008 54.4295 13.5313C54.6269 13.1619 54.8333 12.7975 55.0487 12.4381C55.2641 12.0788 55.4882 11.725 55.721 11.3766C55.9538 11.0283 56.1949 10.6859 56.4444 10.3494C56.6939 10.0129 56.9516 9.68275 57.2174 9.35889C57.4832 9.03507 57.7567 8.71794 58.0381 8.40754C58.3195 8.09711 58.6082 7.79379 58.9044 7.49758C59.2007 7.20133 59.504 6.91254 59.8144 6.6312C60.1248 6.34987 60.4419 6.07632 60.7657 5.81055C61.0896 5.54478 61.4198 5.28711 61.7563 5.03755C62.0928 4.788 62.4352 4.54684 62.7835 4.31409C63.1319 4.08134 63.4857 3.85728 63.845 3.6419C64.2043 3.42652 64.5687 3.22009 64.9382 3.0226C65.3077 2.82513 65.6818 2.63682 66.0605 2.45771C66.4392 2.27859 66.8221 2.10888 67.209 1.94855C67.5961 1.78823 67.9869 1.6375 68.3814 1.49637C68.7758 1.35523 69.1735 1.22387 69.5743 1.10225C69.9753 0.980638 70.379 0.868945 70.7854 0.767148C71.1917 0.665352 71.6003 0.573594 72.0113 0.491862C72.4221 0.41013 72.8347 0.338529 73.2491 0.277057C73.6635 0.215586 74.0792 0.164323 74.4962 0.123268C74.9131 0.0822005 75.3307 0.0513932 75.7492 0.0308333C76.1676 0.0102734 76.5862 0 77.0051 0L77.0051 0Z" id="Inside-Shape" fill="#023E2E" fill-rule="evenodd" stroke="none" />
                  <g id="Mask-group">
                    <path d="M77.0051 0L266.136 0C266.555 0 266.973 0.0102734 267.392 0.0308333C267.811 0.0513932 268.228 0.0822005 268.645 0.123268C269.061 0.164323 269.477 0.215586 269.892 0.277057C270.306 0.338529 270.719 0.41013 271.13 0.491862C271.54 0.573594 271.949 0.665352 272.355 0.767148C272.762 0.868945 273.166 0.980638 273.567 1.10225C273.967 1.22387 274.365 1.35523 274.76 1.49637C275.155 1.6375 275.545 1.78823 275.932 1.94855C276.319 2.10888 276.702 2.27859 277.081 2.45771C277.46 2.63682 277.833 2.82513 278.202 3.0226C278.572 3.22009 278.936 3.42652 279.296 3.6419C279.656 3.85728 280.009 4.08134 280.358 4.31409C280.706 4.54684 281.048 4.788 281.385 5.03755C281.722 5.28711 282.052 5.54478 282.375 5.81055C282.699 6.07632 283.017 6.34987 283.327 6.6312C283.637 6.91254 283.94 7.20133 284.237 7.49758C284.533 7.79379 284.821 8.09711 285.102 8.40754C285.384 8.71794 285.658 9.03507 285.923 9.35889C286.189 9.68275 286.447 10.0129 286.696 10.3494C286.946 10.6859 287.188 11.0283 287.42 11.3766C287.653 11.725 287.877 12.0788 288.092 12.4381C288.307 12.7975 288.514 13.1619 288.712 13.5313C288.909 13.9008 289.097 14.2749 289.277 14.6536C289.455 15.0323 289.625 15.4152 289.785 15.8023C289.946 16.1893 290.096 16.58 290.237 16.9745C290.379 17.369 290.51 17.7666 290.632 18.1675C290.753 18.5684 290.865 18.972 290.966 19.3783C291.069 19.7848 291.161 20.1934 291.243 20.6042C291.325 21.0152 291.396 21.4279 291.458 21.8423C291.519 22.2566 291.57 22.6723 291.611 23.0892C291.652 23.5061 291.683 23.9238 291.703 24.3422C291.724 24.7607 291.734 25.1794 291.734 25.5983L291.734 209.164C291.734 209.547 291.725 209.931 291.705 210.314C291.687 210.698 291.659 211.081 291.622 211.463C291.584 211.844 291.537 212.225 291.48 212.605C291.424 212.985 291.359 213.363 291.284 213.74C291.209 214.115 291.124 214.489 291.031 214.863C290.938 215.235 290.835 215.604 290.724 215.972C290.612 216.339 290.492 216.703 290.364 217.064C290.234 217.426 290.096 217.784 289.949 218.138C289.802 218.493 289.647 218.844 289.483 219.191C289.318 219.538 289.145 219.881 288.964 220.22C288.783 220.558 288.595 220.891 288.398 221.22C288.2 221.55 287.994 221.874 287.782 222.193C287.569 222.512 287.348 222.826 287.119 223.135C286.891 223.443 286.655 223.745 286.411 224.041C286.168 224.338 285.917 224.629 285.658 224.913C285.401 225.198 285.137 225.476 284.865 225.748C284.593 226.018 284.315 226.283 284.032 226.541C283.748 226.798 283.457 227.049 283.16 227.292C282.863 227.536 282.56 227.772 282.252 228C281.944 228.229 281.63 228.45 281.312 228.664C280.992 228.877 280.668 229.082 280.339 229.279C280.009 229.477 279.675 229.666 279.337 229.847C278.998 230.028 278.655 230.2 278.308 230.364C277.962 230.528 277.612 230.683 277.257 230.83C276.902 230.978 276.544 231.116 276.183 231.245C275.821 231.375 275.457 231.495 275.089 231.607C274.722 231.718 274.352 231.821 273.98 231.914C273.608 232.007 273.233 232.091 272.857 232.165C272.48 232.24 272.102 232.306 271.722 232.363C271.343 232.418 270.962 232.465 270.58 232.503C270.198 232.54 269.815 232.569 269.431 232.588C269.048 232.606 268.665 232.616 268.281 232.617L268.278 232.617C267.894 232.617 267.511 232.626 267.127 232.644C266.744 232.664 266.361 232.692 265.979 232.73C265.597 232.767 265.216 232.814 264.837 232.87C264.457 232.926 264.079 232.992 263.702 233.068C263.326 233.142 262.951 233.225 262.579 233.318C262.207 233.412 261.837 233.514 261.47 233.626C261.102 233.737 260.738 233.858 260.378 233.987C260.016 234.116 259.657 234.254 259.302 234.402C258.949 234.549 258.598 234.704 258.251 234.868C257.904 235.032 257.561 235.204 257.222 235.385C256.884 235.566 256.55 235.756 256.22 235.954C255.891 236.15 255.568 236.355 255.249 236.568C254.929 236.782 254.615 237.003 254.307 237.232C253.999 237.46 253.696 237.697 253.399 237.94C253.103 238.184 252.813 238.434 252.529 238.691C252.244 238.949 251.966 239.214 251.694 239.485C251.423 239.757 251.159 240.035 250.9 240.319C250.643 240.604 250.393 240.894 250.15 241.191C249.906 241.487 249.67 241.789 249.441 242.098C249.213 242.406 248.991 242.72 248.777 243.04C248.565 243.358 248.359 243.682 248.161 244.012C247.964 244.341 247.776 244.675 247.595 245.012C247.414 245.352 247.241 245.695 247.078 246.042C246.913 246.389 246.757 246.74 246.61 247.095C246.463 247.449 246.325 247.806 246.197 248.168C246.067 248.529 245.947 248.893 245.835 249.26C245.724 249.628 245.621 249.998 245.528 250.37C245.435 250.743 245.35 251.117 245.275 251.493C245.201 251.869 245.136 252.248 245.079 252.628C245.023 253.008 244.976 253.388 244.937 253.769C244.9 254.152 244.872 254.535 244.854 254.918C244.834 255.301 244.825 255.685 244.825 256.068L244.825 256.072C244.825 256.456 244.816 256.84 244.797 257.224C244.778 257.607 244.75 257.989 244.712 258.371C244.675 258.753 244.628 259.134 244.572 259.514C244.515 259.893 244.449 260.271 244.374 260.647C244.299 261.024 244.215 261.398 244.122 261.77C244.028 262.143 243.926 262.513 243.816 262.88C243.705 263.247 243.584 263.612 243.454 263.974C243.325 264.334 243.186 264.692 243.04 265.047C242.893 265.402 242.737 265.753 242.574 266.1C242.41 266.447 242.237 266.79 242.057 267.128C241.876 267.467 241.686 267.8 241.488 268.129C241.291 268.458 241.086 268.782 240.872 269.102C240.659 269.421 240.439 269.734 240.21 270.042C239.981 270.351 239.745 270.653 239.502 270.95C239.258 271.247 239.008 271.538 238.751 271.823C238.492 272.107 238.227 272.385 237.955 272.655C237.685 272.927 237.407 273.192 237.123 273.449C236.838 273.707 236.547 273.958 236.25 274.202C235.953 274.445 235.651 274.681 235.343 274.91C235.035 275.139 234.722 275.359 234.402 275.572C234.084 275.786 233.759 275.991 233.429 276.188C233.1 276.386 232.767 276.576 232.428 276.757C232.09 276.937 231.747 277.11 231.4 277.274C231.053 277.437 230.702 277.593 230.347 277.74C229.993 277.886 229.635 278.025 229.274 278.154C228.912 278.283 228.548 278.403 228.181 278.514C227.814 278.626 227.443 278.728 227.07 278.822C226.698 278.915 226.324 278.999 225.947 279.074C225.572 279.149 225.194 279.215 224.814 279.27C224.434 279.327 224.053 279.375 223.671 279.412C223.289 279.45 222.907 279.478 222.524 279.497C222.14 279.516 221.756 279.525 221.372 279.525L25.5983 279.525C25.1794 279.525 24.7607 279.514 24.3422 279.494C23.9238 279.474 23.5061 279.443 23.0892 279.402C22.6723 279.361 22.2566 279.31 21.8423 279.248C21.4279 279.187 21.0152 279.115 20.6042 279.033C20.1934 278.951 19.7848 278.86 19.3783 278.758C18.972 278.656 18.5684 278.544 18.1675 278.422C17.7666 278.3 17.369 278.169 16.9745 278.028C16.58 277.887 16.1893 277.736 15.8023 277.576C15.4152 277.415 15.0323 277.246 14.6536 277.067C14.2749 276.888 13.9008 276.7 13.5313 276.502C13.1619 276.304 12.7975 276.098 12.4381 275.883C12.0788 275.668 11.725 275.444 11.3766 275.21C11.0283 274.978 10.6859 274.737 10.3494 274.487C10.0129 274.237 9.68275 273.98 9.35889 273.715C9.03507 273.449 8.71794 273.175 8.40754 272.894C8.09711 272.612 7.79379 272.323 7.49755 272.027C7.20133 271.732 6.91254 271.428 6.6312 271.118C6.34987 270.807 6.07631 270.49 5.81055 270.165C5.54478 269.842 5.28711 269.512 5.03755 269.176C4.788 268.839 4.54684 268.496 4.31409 268.148C4.08134 267.8 3.85728 267.446 3.6419 267.087C3.42652 266.727 3.22009 266.363 3.0226 265.994C2.82513 265.625 2.63682 265.25 2.45771 264.871C2.27859 264.492 2.10888 264.11 1.94855 263.723C1.78823 263.336 1.6375 262.945 1.49637 262.55C1.35523 262.155 1.22387 261.758 1.10225 261.357C0.980638 260.957 0.868945 260.553 0.767148 260.147C0.665352 259.74 0.573594 259.331 0.491862 258.92C0.41013 258.509 0.338529 258.097 0.277057 257.683C0.215586 257.269 0.164323 256.853 0.123268 256.435C0.0822005 256.019 0.0513932 255.601 0.0308333 255.183C0.0102734 254.764 0 254.345 0 253.926L0 77.6477C0 77.2288 0.0102734 76.8101 0.0308333 76.3918C0.0513932 75.9733 0.0822005 75.5556 0.123268 75.1387C0.164323 74.7217 0.215586 74.3061 0.277057 73.8917C0.338529 73.4773 0.41013 73.0647 0.491862 72.6538C0.573594 72.2429 0.665352 71.8342 0.767148 71.4279C0.868945 71.0215 0.980638 70.6178 1.10225 70.2169C1.22387 69.8161 1.35523 69.4184 1.49637 69.0239C1.6375 68.6295 1.78823 68.2387 1.94855 67.8518C2.10888 67.4647 2.27859 67.0818 2.45771 66.703C2.63682 66.3244 2.82513 65.9503 3.0226 65.5809C3.22009 65.2113 3.42652 64.8469 3.6419 64.4876C3.85728 64.1283 4.08134 63.7744 4.31409 63.426C4.54684 63.0778 4.788 62.7354 5.03755 62.3988C5.28711 62.0624 5.54478 61.7323 5.81055 61.4084C6.07631 61.0845 6.34987 60.7674 6.6312 60.457C6.91254 60.1466 7.20133 59.8433 7.49758 59.547C7.79379 59.2508 8.09711 58.962 8.40754 58.6807C8.71794 58.3993 9.03507 58.1257 9.35889 57.8599C9.68275 57.5943 10.0129 57.3366 10.3494 57.087C10.6859 56.8375 11.0283 56.5963 11.3766 56.3635C11.725 56.1309 12.0788 55.9068 12.4381 55.6914C12.7975 55.4761 13.1619 55.2696 13.5313 55.0721C13.9008 54.8746 14.2749 54.6863 14.6536 54.5072C15.0323 54.3281 15.4152 54.1584 15.8023 53.9981C16.1893 53.8378 16.58 53.687 16.9745 53.5458C17.369 53.4047 17.7666 53.2734 18.1675 53.1518C18.5684 53.0301 18.972 52.9184 19.3783 52.8166C19.7848 52.7149 20.1934 52.6231 20.6042 52.5413C21.0152 52.4596 21.4279 52.388 21.8423 52.3266C22.2566 52.265 22.6723 52.2138 23.0892 52.1728C23.5061 52.1317 23.9238 52.1009 24.3422 52.0803C24.7607 52.0597 25.1794 52.0494 25.5983 52.0494L25.8086 52.0494C26.2275 52.0494 26.6462 52.0392 27.0647 52.0187C27.483 51.9981 27.9007 51.9673 28.3177 51.9262C28.7346 51.8851 29.1502 51.8339 29.5646 51.7724C29.979 51.711 30.3916 51.6394 30.8026 51.5576C31.2134 51.4759 31.6221 51.3841 32.0285 51.2823C32.4348 51.1806 32.8384 51.0689 33.2394 50.9472C33.6402 50.8256 34.0379 50.6943 34.4323 50.5532C34.8268 50.412 35.2176 50.2612 35.6046 50.1009C35.9917 49.9406 36.3746 49.7709 36.7532 49.5918C37.132 49.4126 37.5061 49.2243 37.8755 49.0269C38.245 48.8294 38.6094 48.6229 38.9687 48.4076C39.3281 48.1922 39.6819 47.9681 40.0302 47.7353C40.3786 47.5026 40.721 47.2615 41.0574 47.0118C41.394 46.7623 41.7242 46.5047 42.048 46.2389C42.3718 45.9731 42.6889 45.6996 42.9993 45.4183C43.3097 45.137 43.613 44.8481 43.9093 44.5519C44.2056 44.2557 44.4943 43.9524 44.7756 43.6419C45.057 43.3315 45.3305 43.0144 45.5963 42.6906C45.8621 42.3668 46.1198 42.0366 46.3693 41.7C46.6189 41.3636 46.8601 41.0212 47.0927 40.6728C47.3255 40.3245 47.5496 39.9707 47.765 39.6114C47.9804 39.252 48.1868 38.8875 48.3842 38.5181C48.5817 38.1487 48.77 37.7746 48.9491 37.3958C49.1283 37.0172 49.298 36.6343 49.4583 36.2472C49.6187 35.8601 49.7694 35.4694 49.9104 35.0749C50.0516 34.6806 50.183 34.2829 50.3047 33.8819C50.4262 33.4811 50.5379 33.0775 50.6397 32.6711C50.7415 32.2647 50.8333 31.856 50.915 31.4452C50.9967 31.0343 51.0683 30.6216 51.1299 30.2072C51.1913 29.7928 51.2426 29.3771 51.2836 28.9603C51.3247 28.5434 51.3555 28.1257 51.376 27.7072C51.3965 27.2888 51.4069 26.8701 51.4069 26.4511L51.4069 25.5983C51.4069 25.1794 51.4171 24.7607 51.4377 24.3422C51.4583 23.9238 51.4891 23.5061 51.5301 23.0892C51.5711 22.6723 51.6225 22.2566 51.684 21.8423C51.7455 21.4279 51.817 21.0152 51.8987 20.6042C51.9804 20.1934 52.0722 19.7848 52.174 19.3783C52.2758 18.972 52.3876 18.5684 52.5092 18.1675C52.6308 17.7666 52.7622 17.369 52.9033 16.9745C53.0443 16.58 53.195 16.1893 53.3554 15.8023C53.5158 15.4152 53.6855 15.0323 53.8646 14.6536C54.0437 14.2749 54.232 13.9008 54.4295 13.5313C54.6269 13.1619 54.8333 12.7975 55.0487 12.4381C55.2641 12.0788 55.4882 11.725 55.721 11.3766C55.9538 11.0283 56.1949 10.6859 56.4444 10.3494C56.6939 10.0129 56.9516 9.68275 57.2174 9.35889C57.4832 9.03507 57.7567 8.71794 58.0381 8.40754C58.3195 8.09711 58.6082 7.79379 58.9044 7.49758C59.2007 7.20133 59.504 6.91254 59.8144 6.6312C60.1248 6.34987 60.4419 6.07632 60.7657 5.81055C61.0896 5.54478 61.4198 5.28711 61.7563 5.03755C62.0928 4.788 62.4352 4.54684 62.7835 4.31409C63.1319 4.08134 63.4857 3.85728 63.845 3.6419C64.2043 3.42652 64.5687 3.22009 64.9382 3.0226C65.3077 2.82513 65.6818 2.63682 66.0605 2.45771C66.4392 2.27859 66.8221 2.10888 67.209 1.94855C67.5961 1.78823 67.9869 1.6375 68.3814 1.49637C68.7758 1.35523 69.1735 1.22387 69.5743 1.10225C69.9753 0.980638 70.379 0.868945 70.7854 0.767148C71.1917 0.665352 71.6003 0.573594 72.0113 0.491862C72.4221 0.41013 72.8347 0.338529 73.2491 0.277057C73.6635 0.215586 74.0792 0.164323 74.4962 0.123268C74.9131 0.0822005 75.3307 0.0513932 75.7492 0.0308333C76.1676 0.0102734 76.5862 0 77.0051 0L77.0051 0Z" id="path_1" fill="none" fill-rule="evenodd" stroke="none" />
                    <g clip-path="url(#mask_2)">
                      <g id="Group" transform="translate(25.081787 28.24939)">
                        <g id="HEX#1">
                          <g id="110">
                            <path d="M181.25 96.0262C184.779 97.3554 188.694 98.02 192.996 98.02C199.231 98.02 204.752 96.9566 209.561 94.83C214.37 92.7034 218.563 89.888 222.14 86.3837C225.716 82.8796 228.713 78.868 231.129 74.3488C233.546 69.8296 235.504 65.1533 237.002 60.32C238.501 55.4866 239.576 50.7016 240.229 45.9651C240.881 41.2284 241.207 36.9026 241.207 32.9876C241.207 27.3808 240.507 22.5112 239.105 18.3787C237.703 14.2463 235.745 10.8146 233.232 8.08372C230.719 5.3529 227.686 3.32292 224.134 1.99375C220.582 0.664583 216.679 0 212.424 0C206.189 0 200.668 1.06333 195.859 3.19C191.05 5.31664 186.857 8.13208 183.28 11.6363C179.704 15.1404 176.695 19.1521 174.253 23.6712C171.813 28.1904 169.843 32.8545 168.345 37.6637C166.847 42.4729 165.771 47.258 165.119 52.0188C164.466 56.7796 164.14 61.1175 164.14 65.0325C164.14 70.6392 164.841 75.5088 166.243 79.6412C167.644 83.7737 169.613 87.2054 172.15 89.9363C174.689 92.6671 177.722 94.6971 181.25 96.0262L181.25 96.0262ZM0 96.3526L3.1175 80.62L27.3325 80.62L39.5125 19.72L16.0224 31.32L12.325 16.8925L45.6026 1.01501L61.335 1.01501L45.4575 80.62L66.265 80.62L63.1474 96.3526L0 96.3526L0 96.3526ZM81.635 96.3526L84.7524 80.62L108.967 80.62L121.147 19.72L97.6574 31.32L93.9599 16.8925L127.238 1.01501L142.97 1.01501L127.092 80.62L147.9 80.62L144.782 96.3526L81.635 96.3526L81.635 96.3526ZM199.556 17.8351C202.577 15.5635 205.973 14.4277 209.744 14.4277C213.513 14.4277 216.509 15.5273 218.733 17.7264C220.956 19.9256 222.358 23.2727 222.938 27.7677L183.063 52.9977C183.691 48.3576 184.73 43.7418 186.18 39.1502C187.63 34.5585 189.467 30.426 191.69 26.7526C193.914 23.0793 196.536 20.1068 199.556 17.8351L199.556 17.8351ZM202.71 82.0336C200.535 83.0728 198.19 83.5923 195.677 83.5923C191.908 83.5923 188.911 82.5049 186.688 80.3299C184.465 78.1549 183.039 74.7957 182.409 70.2524L222.357 44.9498C221.874 48.0916 221.233 51.2212 220.436 54.3387C219.638 57.4561 218.672 60.4407 217.536 63.2924C216.401 66.144 215.096 68.8023 213.621 71.2673C212.148 73.7323 210.505 75.8832 208.692 77.7199C206.88 79.5566 204.886 80.9945 202.71 82.0336L202.71 82.0336Z" id="Shape" fill="#FFFFFF" fill-rule="evenodd" stroke="none" />
                          </g>
                          <g id="101" transform="translate(0 121.17322)">
                            <path d="M111.36 98.02C107.058 98.02 103.143 97.3556 99.6149 96.0266C96.0865 94.6977 93.0536 92.6674 90.5162 89.9356C87.9787 87.2049 86.0091 83.7733 84.6075 79.6409C83.2057 75.5085 82.5049 70.6388 82.5049 65.0319C82.5049 61.1179 82.8311 56.7801 83.4837 52.0185C84.1362 47.2581 85.2116 42.4732 86.7099 37.6638C88.2083 32.8546 90.1778 28.1904 92.6186 23.6713C95.0595 19.1522 98.0683 15.1405 101.645 11.6364C105.222 8.13216 109.414 5.31675 114.224 3.1901C119.033 1.06336 124.555 0 130.79 0C135.043 0 138.946 0.664635 142.499 1.99391C146.051 3.32305 149.084 5.35302 151.597 8.0838C154.111 10.8147 156.068 14.2463 157.47 18.3788C158.872 22.5113 159.572 27.3809 159.572 32.9877C159.572 36.9026 159.246 41.2284 158.594 45.965C157.941 50.7015 156.866 55.4865 155.367 60.3198C153.869 65.1531 151.912 69.8293 149.495 74.3485C147.078 78.8678 144.082 82.8796 140.505 86.384C136.928 89.8883 132.735 92.7038 127.926 94.8303C123.117 96.9568 117.595 98.02 111.36 98.02L111.36 98.02ZM0 96.3525L3.1175 80.6204L27.3325 80.6204L39.5125 19.7199L16.0224 31.32L12.325 16.8925L45.6026 1.01501L61.335 1.01501L45.4575 80.6204L66.265 80.6204L63.1474 96.3525L0 96.3525L0 96.3525ZM166.388 80.6204L163.27 96.3525L226.418 96.3525L229.536 80.6204L208.728 80.6204L224.605 1.01501L208.873 1.01501L175.595 16.8925L179.293 31.32L202.782 19.7199L190.603 80.6204L166.388 80.6204L166.388 80.6204ZM128.107 14.4277C124.338 14.4277 120.942 15.5635 117.921 17.8351C114.9 20.1068 112.278 23.0793 110.055 26.7526C107.832 30.426 105.995 34.5586 104.545 39.1503C103.095 43.7424 102.056 48.3584 101.427 52.9982L141.303 27.7677C140.723 23.2727 139.321 19.9256 137.098 17.7264C134.874 15.5273 131.878 14.4277 128.107 14.4277L128.107 14.4277ZM114.043 83.5917C116.556 83.5917 118.9 83.0723 121.075 82.0335C123.25 80.9947 125.244 79.5571 127.056 77.7207C128.869 75.8832 130.512 73.7323 131.986 71.2679C133.461 68.8023 134.766 66.1439 135.901 63.2926C137.037 60.4413 138.004 57.4569 138.801 54.3394C139.599 51.2219 140.239 48.0919 140.723 44.9493L100.775 70.2524C101.403 74.7955 102.829 78.1548 105.053 80.3303C107.276 82.5046 110.273 83.5917 114.043 83.5917L114.043 83.5917Z" id="Shape" fill="#FFFFFF" fill-rule="evenodd" stroke="none" />
                          </g>
                        </g>
                      </g>
                    </g>
                  </g>
                </g>
              </g>
              <g id="Pencil" transform="translate(226.4939 129.88782)">
                <g id="Body" transform="translate(9.804932 0)">
                  <path d="M196.876 8.76688L197.43 9.26581C197.845 9.63955 198.251 10.0233 198.647 10.417C199.043 10.8106 199.43 11.2138 199.806 11.6265C200.183 12.0391 200.549 12.4608 200.904 12.8914C201.26 13.3221 201.605 13.7612 201.939 14.2088C202.274 14.6563 202.597 15.1118 202.908 15.5752C203.22 16.0387 203.521 16.5095 203.809 16.9877C204.098 17.4658 204.375 17.9508 204.64 18.4425C204.905 18.9343 205.158 19.4323 205.398 19.9365C205.639 20.4407 205.866 20.9504 206.082 21.4657C206.297 21.9812 206.5 22.5015 206.69 23.0268C206.88 23.5521 207.057 24.0818 207.221 24.6158C207.384 25.1498 207.535 25.6875 207.673 26.2289C207.81 26.7703 207.934 27.3148 208.045 27.8623C208.156 28.4098 208.253 28.9597 208.337 29.5119C208.421 30.0642 208.491 30.6182 208.547 31.1739C208.604 31.7296 208.647 32.2863 208.676 32.8442C208.705 33.402 208.721 33.9602 208.723 34.5189C208.725 35.0775 208.713 35.6357 208.687 36.1937C208.662 36.7517 208.622 37.3088 208.569 37.8648C208.516 38.4209 208.45 38.9754 208.37 39.5281C208.29 40.081 208.196 40.6315 208.089 41.1797C207.982 41.7279 207.861 42.2732 207.727 42.8155C207.593 43.3577 207.446 43.8963 207.285 44.4314C207.125 44.9666 206.952 45.4974 206.765 46.0238C206.579 46.5504 206.379 47.0721 206.167 47.5889C205.955 48.1056 205.731 48.6169 205.494 49.1226C205.256 49.6283 205.007 50.1279 204.745 50.6215C204.483 51.115 204.21 51.6017 203.924 52.0818C203.639 52.5618 203.341 53.0346 203.033 53.5C202.724 53.9655 202.404 54.4231 202.072 54.873C201.741 55.3227 201.399 55.764 201.046 56.1969C200.693 56.6299 200.33 57.054 199.956 57.4691L51.2836 222.587L0 176.411L148.672 11.2931C149.046 10.878 149.43 10.4723 149.824 10.076C150.217 9.6797 150.621 9.29335 151.033 8.91694C151.446 8.54046 151.868 8.17428 152.298 7.81845C152.729 7.4627 153.168 7.11772 153.615 6.78353C154.063 6.44932 154.518 6.1263 154.982 5.81448C155.445 5.50257 155.916 5.20225 156.394 4.91352C156.873 4.62479 157.358 4.34793 157.849 4.08297C158.341 3.81807 158.839 3.56538 159.343 3.32488C159.847 3.08438 160.357 2.85641 160.873 2.64098C161.388 2.42553 161.908 2.22286 162.434 2.03293C162.959 1.8431 163.488 1.66621 164.023 1.50229C164.556 1.3384 165.094 1.1877 165.636 1.05018C166.177 0.912695 166.721 0.788555 167.269 0.6778C167.816 0.567031 168.366 0.469766 168.919 0.38599C169.471 0.302214 170.025 0.232044 170.581 0.175469C171.136 0.118906 171.693 0.0760026 172.251 0.0467708C172.809 0.0175521 173.367 0.00200521 173.926 0.000182292C174.484 -0.00164063 175.042 0.0102214 175.6 0.0358073C176.158 0.0613802 176.715 0.100651 177.272 0.153594C177.828 0.20651 178.382 0.27306 178.935 0.353216C179.488 0.433372 180.038 0.527031 180.586 0.634219C181.135 0.741419 181.68 0.861966 182.222 0.99586C182.764 1.12983 183.303 1.27701 183.838 1.43741C184.373 1.5978 184.904 1.77124 185.431 1.95771C185.957 2.14419 186.479 2.34345 186.996 2.55548C187.512 2.76759 188.024 2.99224 188.529 3.22941C189.035 3.46658 189.535 3.716 190.028 3.97767C190.522 4.23943 191.008 4.5131 191.488 4.79869C191.969 5.08428 192.441 5.38147 192.907 5.69026C193.372 5.99913 193.83 6.31921 194.28 6.6505C194.729 6.98171 195.171 7.32382 195.604 7.67681C196.037 8.02978 196.461 8.39314 196.876 8.76688L196.876 8.76688L196.876 8.76688Z" id="Mask" fill="#FDB600" fill-rule="evenodd" stroke="none" />
                  <g id="Mask-group">
                    <path d="M196.876 8.76688L197.43 9.26581C197.845 9.63955 198.251 10.0233 198.647 10.417C199.043 10.8106 199.43 11.2138 199.806 11.6265C200.183 12.0391 200.549 12.4608 200.904 12.8914C201.26 13.3221 201.605 13.7612 201.939 14.2088C202.274 14.6563 202.597 15.1118 202.908 15.5752C203.22 16.0387 203.521 16.5095 203.809 16.9877C204.098 17.4658 204.375 17.9508 204.64 18.4425C204.905 18.9343 205.158 19.4323 205.398 19.9365C205.639 20.4407 205.866 20.9504 206.082 21.4657C206.297 21.9812 206.5 22.5015 206.69 23.0268C206.88 23.5521 207.057 24.0818 207.221 24.6158C207.384 25.1498 207.535 25.6875 207.673 26.2289C207.81 26.7703 207.934 27.3148 208.045 27.8623C208.156 28.4098 208.253 28.9597 208.337 29.5119C208.421 30.0642 208.491 30.6182 208.547 31.1739C208.604 31.7296 208.647 32.2863 208.676 32.8442C208.705 33.402 208.721 33.9602 208.723 34.5189C208.725 35.0775 208.713 35.6357 208.687 36.1937C208.662 36.7517 208.622 37.3088 208.569 37.8648C208.516 38.4209 208.45 38.9754 208.37 39.5281C208.29 40.081 208.196 40.6315 208.089 41.1797C207.982 41.7279 207.861 42.2732 207.727 42.8155C207.593 43.3577 207.446 43.8963 207.285 44.4314C207.125 44.9666 206.952 45.4974 206.765 46.0238C206.579 46.5504 206.379 47.0721 206.167 47.5889C205.955 48.1056 205.731 48.6169 205.494 49.1226C205.256 49.6283 205.007 50.1279 204.745 50.6215C204.483 51.115 204.21 51.6017 203.924 52.0818C203.639 52.5618 203.341 53.0346 203.033 53.5C202.724 53.9655 202.404 54.4231 202.072 54.873C201.741 55.3227 201.399 55.764 201.046 56.1969C200.693 56.6299 200.33 57.054 199.956 57.4691L51.2836 222.587L0 176.411L148.672 11.2931C149.046 10.878 149.43 10.4723 149.824 10.076C150.217 9.6797 150.621 9.29335 151.033 8.91694C151.446 8.54046 151.868 8.17428 152.298 7.81845C152.729 7.4627 153.168 7.11772 153.615 6.78353C154.063 6.44932 154.518 6.1263 154.982 5.81448C155.445 5.50257 155.916 5.20225 156.394 4.91352C156.873 4.62479 157.358 4.34793 157.849 4.08297C158.341 3.81807 158.839 3.56538 159.343 3.32488C159.847 3.08438 160.357 2.85641 160.873 2.64098C161.388 2.42553 161.908 2.22286 162.434 2.03293C162.959 1.8431 163.488 1.66621 164.023 1.50229C164.556 1.3384 165.094 1.1877 165.636 1.05018C166.177 0.912695 166.721 0.788555 167.269 0.6778C167.816 0.567031 168.366 0.469766 168.919 0.38599C169.471 0.302214 170.025 0.232044 170.581 0.175469C171.136 0.118906 171.693 0.0760026 172.251 0.0467708C172.809 0.0175521 173.367 0.00200521 173.926 0.000182292C174.484 -0.00164063 175.042 0.0102214 175.6 0.0358073C176.158 0.0613802 176.715 0.100651 177.272 0.153594C177.828 0.20651 178.382 0.27306 178.935 0.353216C179.488 0.433372 180.038 0.527031 180.586 0.634219C181.135 0.741419 181.68 0.861966 182.222 0.99586C182.764 1.12983 183.303 1.27701 183.838 1.43741C184.373 1.5978 184.904 1.77124 185.431 1.95771C185.957 2.14419 186.479 2.34345 186.996 2.55548C187.512 2.76759 188.024 2.99224 188.529 3.22941C189.035 3.46658 189.535 3.716 190.028 3.97767C190.522 4.23943 191.008 4.5131 191.488 4.79869C191.969 5.08428 192.441 5.38147 192.907 5.69026C193.372 5.99913 193.83 6.31921 194.28 6.6505C194.729 6.98171 195.171 7.32382 195.604 7.67681C196.037 8.02978 196.461 8.39314 196.876 8.76688L196.876 8.76688L196.876 8.76688Z" id="path_2" fill="none" fill-rule="evenodd" stroke="none" />
                    <g clip-path="url(#mask_3)">
                      <g id="Group" transform="translate(115.108154 -12.771606)">
                        <path d="M7.84398 0L66.7255 54.9079L58.8815 63.3195L0 8.41164L7.84398 0L7.84398 0Z" transform="translate(0 43.991333)" id="Rectangle" fill="#B6C5CD" fill-rule="evenodd" stroke="none" />
                        <path d="M52.0195 2.19139L93.876 39.8791C93.9797 39.9725 94.0811 40.0685 94.1803 40.1669C94.2793 40.2653 94.3759 40.3661 94.47 40.4692C94.5641 40.5724 94.6556 40.6777 94.7445 40.7854C94.8334 40.893 94.9197 41.0028 95.0033 41.1147C95.0868 41.2266 95.1675 41.3404 95.2455 41.4563C95.3234 41.5721 95.3985 41.6898 95.4706 41.8093C95.5429 41.9288 95.612 42.0501 95.6783 42.173C95.7445 42.2959 95.8077 42.4204 95.8678 42.5464C95.9279 42.6724 95.9848 42.7998 96.0386 42.9286C96.0926 43.0575 96.1432 43.1876 96.1907 43.3189C96.2381 43.4501 96.2823 43.5825 96.3233 43.716C96.3644 43.8496 96.402 43.984 96.4364 44.1193C96.4707 44.2546 96.5017 44.3907 96.5294 44.5275C96.5571 44.6644 96.5815 44.8019 96.6023 44.9399C96.6233 45.0779 96.6409 45.2164 96.6549 45.3553C96.6691 45.4942 96.6798 45.6334 96.6872 45.7728C96.6945 45.9123 96.6983 46.0518 96.6988 46.1914C96.6993 46.331 96.6963 46.4706 96.6899 46.6101C96.6835 46.7496 96.6737 46.8888 96.6604 47.0278C96.6472 47.1668 96.6306 47.3054 96.6106 47.4436C96.5905 47.5818 96.5671 47.7194 96.5404 47.8564C96.5136 47.9935 96.4834 48.1297 96.4499 48.2653C96.4165 48.4009 96.3797 48.5355 96.3395 48.6692C96.2994 48.8029 96.2561 48.9356 96.2095 49.0673C96.1629 49.1989 96.1131 49.3293 96.0601 49.4585C96.0071 49.5876 95.9509 49.7154 95.8916 49.8418C95.8324 49.9683 95.77 50.0931 95.7046 50.2165C95.6392 50.3398 95.5708 50.4615 95.4993 50.5815C95.428 50.7015 95.3537 50.8197 95.2765 50.936C95.1993 51.0524 95.1193 51.1667 95.0365 51.2791C94.9537 51.3916 94.8682 51.502 94.78 51.6102C94.6917 51.7184 94.6009 51.8244 94.5075 51.9281L54.5369 96.3199L0 47.2147L39.9706 2.82285C40.064 2.71909 40.1599 2.61768 40.2583 2.51862C40.3567 2.41957 40.4575 2.323 40.5606 2.22888C40.6637 2.13478 40.7692 2.04327 40.8769 1.95432C40.9845 1.86539 41.0942 1.77917 41.2061 1.69561C41.318 1.61207 41.4318 1.53134 41.5477 1.45337C41.6635 1.37543 41.7812 1.30038 41.9007 1.2282C42.0203 1.15603 42.1415 1.08682 42.2644 1.0206C42.3873 0.954375 42.5118 0.891211 42.6378 0.831107C42.7639 0.771003 42.8913 0.714011 43.0201 0.660143C43.1489 0.606302 43.279 0.555638 43.4103 0.508177C43.5416 0.460703 43.674 0.416484 43.8075 0.375521C43.9409 0.334544 44.0754 0.296875 44.2107 0.2625C44.346 0.228138 44.4821 0.197109 44.619 0.169414C44.7558 0.141732 44.8933 0.117422 45.0313 0.0964844C45.1694 0.0755469 45.3079 0.0580078 45.4468 0.0438672C45.5857 0.0297266 45.7248 0.0189974 45.8643 0.0116797C46.0037 0.00438802 46.1432 0.000507813 46.2829 5.20833e-05C46.4225 -0.000403646 46.562 0.00255208 46.7015 0.00894532C46.841 0.0153516 46.9802 0.0251563 47.1193 0.0383854C47.2582 0.0516146 47.3968 0.0682552 47.535 0.0882813C47.6732 0.10832 47.8108 0.131732 47.9478 0.158529C48.0848 0.185313 48.2211 0.215469 48.3567 0.248945C48.4922 0.282435 48.6269 0.319219 48.7606 0.359297C48.8944 0.399401 49.0271 0.44276 49.1588 0.489362C49.2903 0.535977 49.4207 0.585781 49.5499 0.638789C49.6791 0.691797 49.8069 0.747943 49.9332 0.807227C50.0597 0.866511 50.1845 0.928867 50.3079 0.994284C50.4313 1.05969 50.553 1.1281 50.673 1.19948C50.793 1.27089 50.9111 1.34517 51.0275 1.42236C51.1438 1.49954 51.2582 1.57956 51.3706 1.66236C51.483 1.74517 51.5934 1.83069 51.7016 1.91892C51.8098 2.00714 51.9158 2.09796 52.0195 2.19139L52.0195 2.19139Z" transform="translate(8.737548 0)" id="Eraser" fill="#C6527A" fill-rule="evenodd" stroke="none" />
                      </g>
                    </g>
                  </g>
                </g>
                <path d="M0 56.9119L6.52281 0L54.5218 43.2185L0 56.9119L0 56.9119Z" transform="translate(0 184.07043)" id="Point" fill="#FFFDAF" fill-rule="evenodd" stroke="none" />
              </g>
            </g>
          </g>
        </g>
      </g>
    </g>
  </g>
</svg>