<svg id="Слой_1" data-name="Слой 1" xmlns="http://www.w3.org/2000/svg" viewBox="0 0 469.3 451.1"><defs><style>.cls-1,.cls-10,.cls-5,.cls-9{fill:#fff;}.cls-1,.cls-5{stroke:#000;}.cls-1,.cls-5,.cls-8{stroke-miterlimit:10;}.cls-1{stroke-width:14px;}.cls-10,.cls-11,.cls-12,.cls-13,.cls-14,.cls-2,.cls-3,.cls-4,.cls-6,.cls-7,.cls-9{isolation:isolate;}.cls-13,.cls-2,.cls-6,.cls-9{font-size:92px;}.cls-2,.cls-3,.cls-6,.cls-9{font-family:NokiaLarge-Bold, Nokia Large;}.cls-10,.cls-14,.cls-2,.cls-3,.cls-6,.cls-7,.cls-9{font-weight:700;}.cls-10,.cls-14,.cls-3,.cls-7{font-size:78.15px;}.cls-11,.cls-12,.cls-4{font-size:29.08px;font-family:GoMonoNerdFontComplete-, GoMono NF;}.cls-5,.cls-8{stroke-width:7px;}.cls-6{fill:#e6332a;}.cls-7{fill:#36a9e1;}.cls-10,.cls-7{font-family:NokiaStandardMultiscript-Bold, Nokia Standard Multiscript;}.cls-8{stroke:#ffed00;}.cls-11{fill:#009754;}.cls-12{fill:#009648;}.cls-13{font-family:GoMonoNerdFontCompl-Bold-Italic, GoMono NF;font-style:italic;letter-spacing:-0.01em;}.cls-14{font-family:GoMonoNerdFontComplete-Bold, GoMono NF;}</style></defs><path class="cls-1" d="M214.8,242.2H40.1a13.51,13.51,0,0,1-13.5-13.5V53.9A13.51,13.51,0,0,1,40.1,40.4H214.8a13.51,13.51,0,0,1,13.5,13.5V228.6A13.47,13.47,0,0,1,214.8,242.2Z" transform="translate(-19.6 -33.4)"/><text class="cls-2" transform="translate(19.67 98.11)">BiN</text><text class="cls-3" transform="translate(19.67 174.9) scale(1.04 1)">ED</text><text class="cls-4" transform="translate(140.58 125.52) rotate(45)">1</text><text class="cls-4" transform="translate(173.82 143.29)">0</text><text class="cls-4" transform="translate(130.34 153.57) rotate(45)">0</text><text class="cls-4" transform="translate(163.58 171.35)">1</text><path class="cls-5" d="M214.8,469.6H40.1a13.51,13.51,0,0,1-13.5-13.5V281.4a13.51,13.51,0,0,1,13.5-13.5H214.8a13.51,13.51,0,0,1,13.5,13.5V456.1A13.38,13.38,0,0,1,214.8,469.6Z" transform="translate(-19.6 -33.4)"/><text class="cls-6" transform="translate(19.67 325.58)">BiN</text><text class="cls-7" transform="translate(19.67 402.37) scale(1.04 1)">ED</text><text class="cls-4" transform="translate(140.58 352.98) rotate(45)">1</text><text class="cls-4" transform="translate(173.82 370.76)">0</text><text class="cls-4" transform="translate(130.34 381.04) rotate(45)">0</text><text class="cls-4" transform="translate(163.58 398.82)">1</text><path class="cls-8" d="M471.9,471.6H297.2a13.51,13.51,0,0,1-13.5-13.5V283.4a13.51,13.51,0,0,1,13.5-13.5H471.9a13.51,13.51,0,0,1,13.5,13.5V458.1A13.57,13.57,0,0,1,471.9,471.6Z" transform="translate(-19.6 -33.4)"/><text class="cls-9" transform="translate(276.73 327.56)">BiN</text><text class="cls-10" transform="translate(276.73 404.35) scale(1.04 1)">ED</text><text class="cls-4" transform="translate(397.63 354.97) rotate(45)">1</text><text class="cls-4" transform="translate(430.88 372.75)">0</text><text class="cls-11" transform="translate(390.52 354.96) rotate(45)">0</text><text class="cls-12" transform="translate(427.52 370.76)">1</text><text class="cls-11" transform="translate(379.93 386.57) rotate(45)">1</text><text class="cls-12" transform="translate(416.92 402.37)">0</text><path class="cls-1" d="M468.4,242.2H293.7a13.51,13.51,0,0,1-13.5-13.5V53.9a13.51,13.51,0,0,1,13.5-13.5H468.4a13.51,13.51,0,0,1,13.5,13.5V228.6A13.59,13.59,0,0,1,468.4,242.2Z" transform="translate(-19.6 -33.4)"/><text class="cls-13" transform="translate(273.22 98.11)">BiN</text><text class="cls-14" transform="translate(273.22 174.9) scale(1.04 1)">ED</text><text class="cls-4" transform="translate(394.13 125.52) rotate(45)">1</text><text class="cls-4" transform="translate(427.37 143.29)">0</text><text class="cls-4" transform="translate(383.89 153.57) rotate(45)">0</text><text class="cls-4" transform="translate(417.13 171.35)">1</text></svg>